<svg xmlns="http://www.w3.org/2000/svg" xmlns:xlink="http://www.w3.org/1999/xlink" width="500" zoomAndPan="magnify" viewBox="0 0 375 374.999991" height="500" preserveAspectRatio="xMidYMid meet" version="1.0"><defs><g/><clipPath id="8d22b48b4c"><path d="M 44 257 L 118 257 L 118 331 L 44 331 Z M 44 257 " clip-rule="nonzero"/></clipPath><clipPath id="1ee652c8c2"><path d="M 40.769531 261.660156 L 149.652344 250.039062 L 161.195312 358.171875 L 52.316406 369.796875 Z M 40.769531 261.660156 " clip-rule="nonzero"/></clipPath><clipPath id="9319fa4e50"><path d="M 40.769531 261.660156 L 149.652344 250.039062 L 161.195312 358.171875 L 52.316406 369.796875 Z M 40.769531 261.660156 " clip-rule="nonzero"/></clipPath><clipPath id="2d7c7ebd94"><path d="M 107 314 L 124 314 L 124 332 L 107 332 Z M 107 314 " clip-rule="nonzero"/></clipPath><clipPath id="e27821f3ce"><path d="M 40.769531 261.660156 L 149.652344 250.039062 L 161.195312 358.171875 L 52.316406 369.796875 Z M 40.769531 261.660156 " clip-rule="nonzero"/></clipPath><clipPath id="ac5191fe3f"><path d="M 40.769531 261.660156 L 149.652344 250.039062 L 161.195312 358.171875 L 52.316406 369.796875 Z M 40.769531 261.660156 " clip-rule="nonzero"/></clipPath><clipPath id="4613b3c9a4"><path d="M 121 324 L 161 324 L 161 359 L 121 359 Z M 121 324 " clip-rule="nonzero"/></clipPath><clipPath id="6ccace424b"><path d="M 40.769531 261.660156 L 149.652344 250.039062 L 161.195312 358.171875 L 52.316406 369.796875 Z M 40.769531 261.660156 " clip-rule="nonzero"/></clipPath><clipPath id="63e83fb1f2"><path d="M 40.769531 261.660156 L 149.652344 250.039062 L 161.195312 358.171875 L 52.316406 369.796875 Z M 40.769531 261.660156 " clip-rule="nonzero"/></clipPath><clipPath id="0ab368ed6a"><path d="M 55 283 L 93 283 L 93 320 L 55 320 Z M 55 283 " clip-rule="nonzero"/></clipPath><clipPath id="7bfb4d92cc"><path d="M 40.769531 261.660156 L 149.652344 250.039062 L 161.195312 358.171875 L 52.316406 369.796875 Z M 40.769531 261.660156 " clip-rule="nonzero"/></clipPath><clipPath id="7d724574c0"><path d="M 40.769531 261.660156 L 149.652344 250.039062 L 161.195312 358.171875 L 52.316406 369.796875 Z M 40.769531 261.660156 " clip-rule="nonzero"/></clipPath><clipPath id="5e182b56b6"><path d="M 86.238281 12.339844 L 281.988281 12.339844 L 281.988281 229 L 86.238281 229 Z M 86.238281 12.339844 " clip-rule="nonzero"/></clipPath></defs><g clip-path="url(#8d22b48b4c)"><g clip-path="url(#1ee652c8c2)"><g clip-path="url(#9319fa4e50)"><path fill="#a5be00" d="M 84.941406 330.515625 C 64.886719 332.65625 46.828125 318.082031 44.6875 298.023438 C 42.546875 277.96875 57.117188 259.910156 77.175781 257.769531 C 97.234375 255.628906 115.289062 270.203125 117.433594 290.257812 C 119.574219 310.316406 104.996094 328.375 84.941406 330.515625 Z M 77.816406 263.753906 C 76.820312 263.859375 75.832031 264.011719 74.851562 264.214844 C 73.871094 264.417969 72.902344 264.671875 71.949219 264.96875 C 70.992188 265.265625 70.054688 265.613281 69.132812 266.003906 C 68.210938 266.394531 67.3125 266.828125 66.433594 267.308594 C 65.554688 267.785156 64.699219 268.308594 63.871094 268.871094 C 63.042969 269.433594 62.246094 270.035156 61.476562 270.675781 C 60.710938 271.316406 59.972656 271.996094 59.273438 272.707031 C 58.570312 273.421875 57.90625 274.167969 57.277344 274.949219 C 56.648438 275.726562 56.058594 276.535156 55.507812 277.371094 C 54.960938 278.207031 54.453125 279.070312 53.988281 279.957031 C 53.523438 280.84375 53.105469 281.75 52.726562 282.675781 C 52.351562 283.605469 52.023438 284.550781 51.742188 285.511719 C 51.457031 286.46875 51.222656 287.441406 51.035156 288.425781 C 50.847656 289.410156 50.710938 290.398438 50.621094 291.394531 C 50.53125 292.390625 50.488281 293.390625 50.496094 294.390625 C 50.503906 295.394531 50.5625 296.390625 50.667969 297.386719 C 50.773438 298.382812 50.929688 299.371094 51.132812 300.351562 C 51.335938 301.328125 51.585938 302.296875 51.886719 303.253906 C 52.183594 304.207031 52.527344 305.148438 52.917969 306.070312 C 53.308594 306.992188 53.746094 307.890625 54.222656 308.769531 C 54.703125 309.648438 55.222656 310.5 55.785156 311.328125 C 56.351562 312.15625 56.953125 312.957031 57.59375 313.722656 C 58.234375 314.492188 58.910156 315.226562 59.625 315.929688 C 60.339844 316.632812 61.085938 317.296875 61.863281 317.925781 C 62.644531 318.554688 63.449219 319.144531 64.289062 319.691406 C 65.125 320.242188 65.984375 320.75 66.871094 321.214844 C 67.757812 321.679688 68.667969 322.097656 69.59375 322.472656 C 70.523438 322.847656 71.464844 323.179688 72.425781 323.460938 C 73.386719 323.742188 74.359375 323.980469 75.34375 324.164062 C 76.324219 324.351562 77.316406 324.492188 78.3125 324.582031 C 79.308594 324.671875 80.308594 324.710938 81.308594 324.703125 C 82.308594 324.695312 83.308594 324.640625 84.304688 324.53125 C 85.300781 324.425781 86.285156 324.273438 87.265625 324.070312 C 88.246094 323.863281 89.214844 323.613281 90.171875 323.316406 C 91.125 323.015625 92.0625 322.671875 92.984375 322.28125 C 93.90625 321.890625 94.808594 321.457031 95.6875 320.976562 C 96.566406 320.5 97.417969 319.976562 98.246094 319.414062 C 99.074219 318.851562 99.871094 318.25 100.640625 317.609375 C 101.410156 316.96875 102.144531 316.289062 102.847656 315.578125 C 103.546875 314.863281 104.214844 314.117188 104.84375 313.335938 C 105.472656 312.558594 106.058594 311.75 106.609375 310.914062 C 107.160156 310.078125 107.664062 309.214844 108.128906 308.328125 C 108.59375 307.441406 109.015625 306.535156 109.390625 305.605469 C 109.765625 304.679688 110.09375 303.734375 110.378906 302.773438 C 110.660156 301.816406 110.894531 300.84375 111.082031 299.859375 C 111.269531 298.875 111.410156 297.886719 111.5 296.890625 C 111.589844 295.890625 111.628906 294.894531 111.621094 293.894531 C 111.613281 292.890625 111.554688 291.894531 111.449219 290.898438 C 111.34375 289.902344 111.1875 288.917969 110.980469 287.9375 C 110.777344 286.957031 110.527344 285.992188 110.226562 285.035156 C 109.925781 284.082031 109.582031 283.144531 109.191406 282.222656 C 108.800781 281.300781 108.363281 280.402344 107.886719 279.523438 C 107.40625 278.644531 106.882812 277.792969 106.320312 276.964844 C 105.757812 276.136719 105.15625 275.339844 104.515625 274.574219 C 103.875 273.804688 103.195312 273.070312 102.484375 272.367188 C 101.769531 271.667969 101.023438 271 100.246094 270.375 C 99.464844 269.746094 98.660156 269.15625 97.820312 268.605469 C 96.984375 268.058594 96.125 267.550781 95.238281 267.085938 C 94.351562 266.621094 93.445312 266.203125 92.519531 265.824219 C 91.589844 265.449219 90.648438 265.121094 89.6875 264.839844 C 88.726562 264.554688 87.757812 264.320312 86.773438 264.132812 C 85.789062 263.945312 84.800781 263.804688 83.804688 263.714844 C 82.808594 263.621094 81.808594 263.582031 80.808594 263.589844 C 79.808594 263.59375 78.8125 263.652344 77.816406 263.757812 Z M 77.816406 263.753906 " fill-opacity="1" fill-rule="nonzero"/></g></g></g><g clip-path="url(#2d7c7ebd94)"><g clip-path="url(#e27821f3ce)"><g clip-path="url(#ac5191fe3f)"><path fill="#a5be00" d="M 111.625 331.644531 C 110.949219 331.714844 110.3125 331.59375 109.707031 331.277344 C 109.105469 330.964844 108.640625 330.507812 108.3125 329.910156 C 107.988281 329.316406 107.851562 328.675781 107.914062 328 C 107.972656 327.324219 108.214844 326.71875 108.636719 326.1875 L 116.90625 315.867188 C 117.039062 315.679688 117.1875 315.507812 117.355469 315.347656 C 117.523438 315.191406 117.703125 315.054688 117.902344 314.933594 C 118.097656 314.816406 118.300781 314.714844 118.519531 314.640625 C 118.734375 314.5625 118.957031 314.507812 119.183594 314.472656 C 119.410156 314.441406 119.636719 314.433594 119.867188 314.445312 C 120.097656 314.460938 120.320312 314.5 120.542969 314.558594 C 120.765625 314.621094 120.976562 314.703125 121.183594 314.804688 C 121.386719 314.910156 121.578125 315.03125 121.757812 315.175781 C 121.9375 315.320312 122.101562 315.476562 122.246094 315.65625 C 122.394531 315.832031 122.523438 316.019531 122.628906 316.222656 C 122.738281 316.425781 122.824219 316.636719 122.890625 316.855469 C 122.953125 317.078125 122.996094 317.300781 123.015625 317.53125 C 123.035156 317.757812 123.03125 317.988281 123.003906 318.214844 C 122.972656 318.441406 122.925781 318.664062 122.851562 318.882812 C 122.777344 319.101562 122.683594 319.308594 122.566406 319.507812 C 122.453125 319.703125 122.316406 319.890625 122.164062 320.058594 L 113.898438 330.382812 C 113.316406 331.117188 112.558594 331.539062 111.625 331.644531 Z M 111.625 331.644531 " fill-opacity="1" fill-rule="nonzero"/></g></g></g><g clip-path="url(#4613b3c9a4)"><g clip-path="url(#6ccace424b)"><g clip-path="url(#63e83fb1f2)"><path fill="#a5be00" d="M 155.175781 358.765625 C 154.402344 358.851562 153.644531 358.78125 152.898438 358.558594 C 152.15625 358.332031 151.484375 357.972656 150.882812 357.476562 L 123.542969 334.867188 C 123.25 334.625 122.984375 334.359375 122.742188 334.0625 C 122.503906 333.769531 122.296875 333.457031 122.117188 333.121094 C 121.941406 332.785156 121.796875 332.4375 121.6875 332.074219 C 121.578125 331.710938 121.507812 331.339844 121.472656 330.960938 C 121.433594 330.582031 121.4375 330.207031 121.476562 329.828125 C 121.515625 329.453125 121.589844 329.082031 121.699219 328.71875 C 121.8125 328.355469 121.957031 328.007812 122.136719 327.675781 C 122.316406 327.339844 122.527344 327.027344 122.769531 326.734375 C 123.011719 326.441406 123.277344 326.175781 123.574219 325.9375 C 123.867188 325.695312 124.179688 325.488281 124.515625 325.3125 C 124.851562 325.132812 125.199219 324.988281 125.5625 324.882812 C 125.929688 324.773438 126.296875 324.699219 126.675781 324.664062 C 127.054688 324.628906 127.429688 324.628906 127.808594 324.667969 C 128.1875 324.707031 128.554688 324.78125 128.917969 324.894531 C 129.28125 325.003906 129.628906 325.148438 129.964844 325.328125 C 130.296875 325.507812 130.609375 325.71875 130.902344 325.960938 L 158.242188 348.570312 C 158.683594 348.933594 159.058594 349.351562 159.375 349.824219 C 159.6875 350.296875 159.925781 350.804688 160.09375 351.351562 C 160.257812 351.894531 160.339844 352.449219 160.339844 353.019531 C 160.339844 353.585938 160.257812 354.144531 160.09375 354.6875 C 159.929688 355.230469 159.691406 355.742188 159.378906 356.214844 C 159.0625 356.6875 158.6875 357.105469 158.25 357.46875 C 157.8125 357.832031 157.332031 358.125 156.808594 358.34375 C 156.285156 358.566406 155.742188 358.707031 155.175781 358.765625 Z M 155.175781 358.765625 " fill-opacity="1" fill-rule="nonzero"/></g></g></g><g clip-path="url(#0ab368ed6a)"><g clip-path="url(#7bfb4d92cc)"><g clip-path="url(#7d724574c0)"><path fill="#a5be00" d="M 83.734375 319.769531 C 79.050781 320.269531 72.710938 319.585938 65.539062 315.195312 C 59.242188 311.339844 55.824219 304.742188 55.65625 296.117188 C 55.589844 292.128906 56.125 288.21875 57.257812 284.394531 C 57.332031 284.167969 57.445312 283.964844 57.601562 283.78125 C 57.757812 283.601562 57.941406 283.457031 58.15625 283.351562 C 58.367188 283.242188 58.59375 283.179688 58.832031 283.164062 C 59.070312 283.144531 59.300781 283.171875 59.527344 283.246094 C 59.753906 283.320312 59.960938 283.433594 60.140625 283.589844 C 60.320312 283.742188 60.46875 283.925781 60.574219 284.140625 C 60.683594 284.351562 60.75 284.574219 60.769531 284.8125 C 60.789062 285.050781 60.761719 285.285156 60.6875 285.511719 C 59.683594 288.980469 59.207031 292.523438 59.265625 296.136719 C 59.433594 303.523438 62.179688 308.894531 67.421875 312.109375 C 80.371094 320.039062 90.09375 314.191406 90.191406 314.128906 C 90.394531 313.996094 90.613281 313.910156 90.851562 313.867188 C 91.09375 313.824219 91.328125 313.828125 91.566406 313.882812 C 91.804688 313.933594 92.019531 314.03125 92.21875 314.171875 C 92.417969 314.3125 92.578125 314.484375 92.707031 314.691406 C 92.835938 314.898438 92.917969 315.121094 92.957031 315.359375 C 92.992188 315.597656 92.984375 315.835938 92.925781 316.074219 C 92.867188 316.308594 92.765625 316.523438 92.621094 316.71875 C 92.476562 316.914062 92.300781 317.070312 92.09375 317.195312 C 91.851562 317.355469 88.734375 319.234375 83.734375 319.769531 Z M 83.734375 319.769531 " fill-opacity="1" fill-rule="nonzero"/></g></g></g><g fill="#ebf2fa" fill-opacity="1"><g transform="translate(14.800785, 339.512995)"><g><path d="M 1.1875 -11.953125 C 1.90625 -11.867188 2.660156 -11.828125 3.453125 -11.828125 C 4.253906 -11.828125 5.015625 -11.828125 5.734375 -11.828125 C 7.804688 -11.828125 9.578125 -12.34375 11.046875 -13.375 C 12.523438 -14.414062 13.265625 -16.570312 13.265625 -19.84375 L 13.265625 -83.65625 L 26.40625 -83.65625 L 26.40625 -20.796875 C 26.40625 -16.578125 25.890625 -13.109375 24.859375 -10.390625 C 23.828125 -7.679688 22.429688 -5.550781 20.671875 -4 C 18.921875 -2.445312 16.910156 -1.351562 14.640625 -0.71875 C 12.367188 -0.0820312 10 0.234375 7.53125 0.234375 C 6.332031 0.234375 5.253906 0.234375 4.296875 0.234375 C 3.347656 0.234375 2.3125 0.15625 1.1875 0 Z M 1.1875 -11.953125 "/></g></g></g><g fill="#ebf2fa" fill-opacity="1"><g transform="translate(45.398439, 339.512995)"><g/></g></g><g fill="#ebf2fa" fill-opacity="1"><g transform="translate(63.922143, 339.512995)"><g/></g></g><g fill="#ebf2fa" fill-opacity="1"><g transform="translate(82.445846, 339.512995)"><g/></g></g><g fill="#ebf2fa" fill-opacity="1"><g transform="translate(100.96955, 339.512995)"><g/></g></g><g fill="#ebf2fa" fill-opacity="1"><g transform="translate(119.49609, 339.512995)"><g><path d="M 24.625 -83.65625 C 31.476562 -83.65625 36.4375 -82.0625 39.5 -78.875 C 42.5625 -75.6875 44.09375 -70.867188 44.09375 -64.421875 L 44.09375 -61.4375 C 44.09375 -57.132812 43.414062 -53.585938 42.0625 -50.796875 C 40.707031 -48.003906 38.554688 -45.929688 35.609375 -44.578125 C 39.203125 -43.222656 41.734375 -41.007812 43.203125 -37.9375 C 44.679688 -34.875 45.421875 -31.113281 45.421875 -26.65625 L 45.421875 -19.84375 C 45.421875 -13.382812 43.742188 -8.460938 40.390625 -5.078125 C 37.046875 -1.691406 32.066406 0 25.453125 0 L 4.78125 0 L 4.78125 -83.65625 Z M 17.921875 -37.640625 L 17.921875 -11.953125 L 25.453125 -11.953125 C 27.679688 -11.953125 29.375 -12.546875 30.53125 -13.734375 C 31.6875 -14.929688 32.265625 -17.085938 32.265625 -20.203125 L 32.265625 -27.484375 C 32.265625 -31.390625 31.609375 -34.054688 30.296875 -35.484375 C 28.984375 -36.921875 26.8125 -37.640625 23.78125 -37.640625 Z M 17.921875 -71.703125 L 17.921875 -49.59375 L 23.0625 -49.59375 C 25.53125 -49.59375 27.460938 -50.226562 28.859375 -51.5 C 30.253906 -52.78125 30.953125 -55.09375 30.953125 -58.4375 L 30.953125 -63.109375 C 30.953125 -66.128906 30.414062 -68.316406 29.34375 -69.671875 C 28.269531 -71.023438 26.578125 -71.703125 24.265625 -71.703125 Z M 17.921875 -71.703125 "/></g></g></g><g fill="#ebf2fa" fill-opacity="1"><g transform="translate(168.016256, 339.512995)"><g><path d="M 17.921875 0 L 4.78125 0 L 4.78125 -83.65625 L 17.921875 -83.65625 L 17.921875 -47.8125 L 32.859375 -47.8125 L 32.859375 -83.65625 L 46.25 -83.65625 L 46.25 0 L 32.859375 0 L 32.859375 -35.859375 L 17.921875 -35.859375 Z M 17.921875 0 "/></g></g></g><g fill="#ebf2fa" fill-opacity="1"><g transform="translate(219.046075, 339.512995)"><g><path d="M 17.328125 -83.65625 L 17.328125 -19.125 C 17.328125 -16.09375 17.941406 -13.976562 19.171875 -12.78125 C 20.410156 -11.59375 22.066406 -11 24.140625 -11 C 26.210938 -11 27.863281 -11.59375 29.09375 -12.78125 C 30.332031 -13.976562 30.953125 -16.09375 30.953125 -19.125 L 30.953125 -83.65625 L 43.390625 -83.65625 L 43.390625 -19.953125 C 43.390625 -13.179688 41.734375 -7.984375 38.421875 -4.359375 C 35.117188 -0.734375 30.238281 1.078125 23.78125 1.078125 C 17.332031 1.078125 12.453125 -0.734375 9.140625 -4.359375 C 5.835938 -7.984375 4.1875 -13.179688 4.1875 -19.953125 L 4.1875 -83.65625 Z M 17.328125 -83.65625 "/></g></g></g><g fill="#ebf2fa" fill-opacity="1"><g transform="translate(266.610178, 339.512995)"><g><path d="M 16.5 -60.59375 L 16.5 0 L 4.65625 0 L 4.65625 -83.65625 L 21.15625 -83.65625 L 34.65625 -33.578125 L 34.65625 -83.65625 L 46.375 -83.65625 L 46.375 0 L 32.859375 0 Z M 16.5 -60.59375 "/></g></g></g><g fill="#ebf2fa" fill-opacity="1"><g transform="translate(317.639998, 339.512995)"><g><path d="M 0.953125 -83.65625 L 41.59375 -83.65625 L 41.59375 -71.703125 L 27.84375 -71.703125 L 27.84375 0 L 14.703125 0 L 14.703125 -71.703125 L 0.953125 -71.703125 Z M 0.953125 -83.65625 "/></g></g></g><g clip-path="url(#5e182b56b6)"><path fill="#a5be00" d="M 230.617188 69.050781 C 230.617188 68.925781 230.554688 68.8125 230.542969 68.691406 C 236.453125 67.328125 242.253906 65.609375 247.949219 63.535156 C 248.269531 63.417969 248.578125 63.269531 248.867188 63.089844 C 249.160156 62.910156 249.433594 62.703125 249.683594 62.46875 C 249.933594 62.238281 250.160156 61.980469 250.359375 61.703125 C 250.558594 61.425781 250.726562 61.128906 250.867188 60.816406 C 251.011719 60.503906 251.117188 60.183594 251.195312 59.847656 C 251.273438 59.515625 251.316406 59.175781 251.324219 58.835938 C 251.332031 58.492188 251.308594 58.152344 251.25 57.816406 C 251.191406 57.476562 251.101562 57.148438 250.976562 56.828125 C 250.851562 56.511719 250.699219 56.207031 250.511719 55.917969 C 250.328125 55.628906 250.117188 55.363281 249.878906 55.117188 C 249.640625 54.871094 249.382812 54.648438 249.101562 54.453125 C 248.816406 54.257812 248.519531 54.09375 248.207031 53.960938 C 247.890625 53.824219 247.566406 53.722656 247.230469 53.652344 C 246.894531 53.582031 246.558594 53.542969 246.214844 53.539062 C 245.871094 53.539062 245.53125 53.570312 245.195312 53.632812 C 244.859375 53.699219 244.535156 53.796875 244.214844 53.925781 C 239.71875 55.554688 235.144531 56.929688 230.492188 58.050781 C 230.503906 57.855469 230.503906 57.65625 230.492188 57.460938 C 226.246094 40.625 217.316406 12.339844 204.839844 12.339844 C 201.644531 12.496094 198.542969 13.121094 195.535156 14.21875 C 192.527344 15.316406 189.753906 16.835938 187.207031 18.777344 C 186.769531 19.082031 186.296875 19.3125 185.785156 19.472656 C 185.277344 19.632812 184.757812 19.710938 184.222656 19.710938 C 183.6875 19.710938 183.167969 19.632812 182.660156 19.472656 C 182.148438 19.3125 181.675781 19.082031 181.238281 18.777344 C 178.691406 16.835938 175.914062 15.316406 172.90625 14.21875 C 169.898438 13.121094 166.792969 12.496094 163.597656 12.339844 C 151.121094 12.339844 142.191406 40.625 137.972656 57.492188 C 137.957031 57.683594 137.957031 57.878906 137.972656 58.070312 C 133.324219 56.9375 128.746094 55.566406 124.238281 53.945312 C 123.925781 53.832031 123.601562 53.746094 123.273438 53.695312 C 122.941406 53.640625 122.609375 53.621094 122.277344 53.632812 C 121.941406 53.644531 121.613281 53.6875 121.285156 53.765625 C 120.960938 53.839844 120.644531 53.949219 120.339844 54.085938 C 120.035156 54.222656 119.746094 54.390625 119.472656 54.582031 C 119.199219 54.777344 118.949219 54.996094 118.71875 55.238281 C 118.488281 55.480469 118.285156 55.742188 118.105469 56.027344 C 117.925781 56.308594 117.777344 56.605469 117.65625 56.917969 C 117.535156 57.230469 117.445312 57.550781 117.386719 57.878906 C 117.328125 58.210938 117.300781 58.542969 117.304688 58.875 C 117.3125 59.210938 117.351562 59.542969 117.421875 59.867188 C 117.492188 60.195312 117.59375 60.511719 117.722656 60.820312 C 117.855469 61.128906 118.015625 61.417969 118.207031 61.695312 C 118.394531 61.972656 118.609375 62.226562 118.847656 62.460938 C 119.085938 62.695312 119.34375 62.90625 119.625 63.089844 C 119.902344 63.273438 120.199219 63.429688 120.507812 63.554688 C 126.203125 65.632812 132.003906 67.351562 137.910156 68.710938 C 137.910156 68.835938 137.839844 68.949219 137.839844 69.070312 L 137.839844 89.671875 C 137.839844 91.191406 137.914062 92.707031 138.0625 94.21875 C 138.214844 95.730469 138.4375 97.234375 138.734375 98.722656 C 139.03125 100.210938 139.398438 101.683594 139.839844 103.136719 C 140.28125 104.59375 140.792969 106.019531 141.375 107.425781 C 141.957031 108.828125 142.605469 110.199219 143.324219 111.539062 C 144.039062 112.878906 144.820312 114.179688 145.664062 115.441406 C 146.507812 116.707031 147.414062 117.925781 148.378906 119.097656 C 149.339844 120.273438 150.359375 121.398438 151.433594 122.472656 C 152.507812 123.546875 153.632812 124.5625 154.808594 125.527344 C 155.984375 126.492188 157.203125 127.394531 158.464844 128.238281 C 159.730469 129.082031 161.03125 129.863281 162.371094 130.578125 C 163.710938 131.296875 165.082031 131.945312 166.484375 132.523438 C 167.890625 133.105469 169.320312 133.617188 170.773438 134.058594 C 172.226562 134.5 173.699219 134.867188 175.1875 135.164062 C 176.679688 135.460938 178.179688 135.683594 179.691406 135.832031 C 181.203125 135.980469 182.71875 136.054688 184.238281 136.054688 C 185.757812 136.054688 187.273438 135.980469 188.785156 135.832031 C 190.296875 135.683594 191.796875 135.460938 193.289062 135.164062 C 194.777344 134.867188 196.25 134.5 197.703125 134.058594 C 199.15625 133.617188 200.585938 133.105469 201.992188 132.523438 C 203.394531 131.945312 204.765625 131.296875 206.105469 130.578125 C 207.445312 129.863281 208.746094 129.082031 210.011719 128.238281 C 211.273438 127.394531 212.492188 126.492188 213.667969 125.527344 C 214.84375 124.5625 215.96875 123.546875 217.042969 122.472656 C 218.117188 121.398438 219.136719 120.273438 220.097656 119.097656 C 221.0625 117.925781 221.96875 116.707031 222.8125 115.441406 C 223.65625 114.179688 224.4375 112.878906 225.152344 111.539062 C 225.871094 110.199219 226.519531 108.828125 227.101562 107.425781 C 227.683594 106.019531 228.195312 104.59375 228.636719 103.136719 C 229.078125 101.683594 229.445312 100.210938 229.742188 98.722656 C 230.039062 97.234375 230.261719 95.730469 230.410156 94.21875 C 230.5625 92.707031 230.636719 91.191406 230.636719 89.671875 Z M 220.304688 89.671875 C 220.304688 90.855469 220.246094 92.035156 220.132812 93.210938 C 220.015625 94.386719 219.84375 95.554688 219.613281 96.714844 C 219.382812 97.871094 219.09375 99.019531 218.75 100.148438 C 218.410156 101.28125 218.011719 102.390625 217.558594 103.484375 C 217.105469 104.574219 216.601562 105.640625 216.042969 106.683594 C 215.488281 107.726562 214.878906 108.738281 214.222656 109.722656 C 213.566406 110.703125 212.863281 111.652344 212.113281 112.566406 C 211.363281 113.480469 210.570312 114.355469 209.734375 115.191406 C 208.898438 116.027344 208.023438 116.820312 207.113281 117.570312 C 206.199219 118.320312 205.25 119.023438 204.265625 119.679688 C 203.285156 120.335938 202.273438 120.941406 201.230469 121.5 C 200.1875 122.058594 199.121094 122.5625 198.027344 123.015625 C 196.9375 123.464844 195.824219 123.863281 194.695312 124.207031 C 193.5625 124.550781 192.417969 124.835938 191.257812 125.066406 C 190.097656 125.296875 188.929688 125.472656 187.753906 125.585938 C 186.578125 125.703125 185.398438 125.761719 184.21875 125.761719 C 183.035156 125.761719 181.855469 125.703125 180.679688 125.585938 C 179.503906 125.472656 178.335938 125.296875 177.175781 125.066406 C 176.019531 124.835938 174.871094 124.550781 173.742188 124.207031 C 172.609375 123.863281 171.5 123.464844 170.40625 123.015625 C 169.316406 122.5625 168.25 122.058594 167.207031 121.5 C 166.164062 120.941406 165.152344 120.335938 164.167969 119.679688 C 163.183594 119.023438 162.238281 118.320312 161.324219 117.570312 C 160.410156 116.820312 159.535156 116.027344 158.699219 115.191406 C 157.863281 114.355469 157.070312 113.480469 156.320312 112.566406 C 155.570312 111.652344 154.867188 110.703125 154.210938 109.722656 C 153.554688 108.738281 152.949219 107.726562 152.390625 106.683594 C 151.832031 105.640625 151.328125 104.574219 150.875 103.484375 C 150.425781 102.390625 150.027344 101.28125 149.683594 100.148438 C 149.339844 99.019531 149.054688 97.871094 148.824219 96.714844 C 148.59375 95.554688 148.417969 94.386719 148.304688 93.210938 C 148.1875 92.035156 148.128906 90.855469 148.128906 89.671875 L 148.128906 74.207031 L 220.304688 74.207031 Z M 184.21875 63.894531 C 171.972656 63.863281 159.847656 62.652344 147.839844 60.265625 C 147.839844 60.164062 147.945312 60.089844 147.976562 59.988281 C 152.523438 41.832031 160.101562 24.023438 163.597656 22.652344 C 165.742188 22.851562 167.816406 23.34375 169.824219 24.128906 C 171.832031 24.914062 173.691406 25.960938 175.402344 27.273438 C 176.046875 27.71875 176.71875 28.113281 177.421875 28.460938 C 178.128906 28.804688 178.851562 29.09375 179.601562 29.328125 C 180.347656 29.5625 181.109375 29.738281 181.886719 29.855469 C 182.660156 29.976562 183.4375 30.035156 184.222656 30.035156 C 185.007812 30.035156 185.785156 29.976562 186.558594 29.855469 C 187.335938 29.738281 188.097656 29.5625 188.84375 29.328125 C 189.59375 29.09375 190.316406 28.804688 191.023438 28.460938 C 191.726562 28.113281 192.398438 27.71875 193.042969 27.273438 C 194.71875 25.996094 196.53125 24.964844 198.484375 24.183594 C 200.4375 23.398438 202.460938 22.886719 204.550781 22.652344 C 208.335938 24.066406 215.890625 41.871094 220.460938 60.03125 C 220.460938 60.144531 220.605469 60.195312 220.644531 60.308594 C 208.621094 62.683594 196.476562 63.878906 184.21875 63.894531 Z M 203.332031 158.199219 C 203.574219 158.4375 203.789062 158.699219 203.976562 158.980469 C 204.164062 159.261719 204.324219 159.558594 204.453125 159.871094 C 204.585938 160.1875 204.683594 160.507812 204.75 160.839844 C 204.816406 161.175781 204.847656 161.507812 204.847656 161.847656 C 204.847656 162.1875 204.816406 162.523438 204.75 162.855469 C 204.683594 163.1875 204.585938 163.511719 204.453125 163.824219 C 204.324219 164.136719 204.164062 164.433594 203.976562 164.71875 C 203.789062 165 203.574219 165.257812 203.332031 165.5 L 189.371094 179.449219 L 189.371094 223.714844 C 189.371094 224.050781 189.339844 224.386719 189.273438 224.71875 C 189.207031 225.050781 189.109375 225.375 188.980469 225.6875 C 188.851562 226 188.691406 226.296875 188.503906 226.578125 C 188.316406 226.859375 188.101562 227.121094 187.863281 227.359375 C 187.625 227.597656 187.363281 227.8125 187.082031 228 C 186.800781 228.1875 186.503906 228.347656 186.191406 228.476562 C 185.878906 228.605469 185.554688 228.703125 185.222656 228.769531 C 184.890625 228.835938 184.554688 228.867188 184.21875 228.867188 C 183.878906 228.867188 183.542969 228.835938 183.210938 228.769531 C 182.878906 228.703125 182.558594 228.605469 182.246094 228.476562 C 181.933594 228.347656 181.636719 228.1875 181.351562 228 C 181.070312 227.8125 180.8125 227.597656 180.570312 227.359375 C 180.332031 227.121094 180.117188 226.859375 179.929688 226.578125 C 179.742188 226.296875 179.585938 226 179.453125 225.6875 C 179.324219 225.375 179.226562 225.050781 179.160156 224.71875 C 179.09375 224.386719 179.0625 224.050781 179.0625 223.714844 L 179.0625 179.449219 L 165.101562 165.5 C 164.863281 165.257812 164.648438 165 164.460938 164.714844 C 164.273438 164.433594 164.113281 164.136719 163.984375 163.824219 C 163.855469 163.511719 163.757812 163.1875 163.691406 162.855469 C 163.625 162.523438 163.59375 162.1875 163.59375 161.847656 C 163.59375 161.511719 163.625 161.175781 163.691406 160.84375 C 163.757812 160.511719 163.855469 160.1875 163.984375 159.875 C 164.117188 159.5625 164.273438 159.265625 164.460938 158.984375 C 164.652344 158.703125 164.863281 158.441406 165.105469 158.203125 C 165.34375 157.960938 165.605469 157.75 165.886719 157.558594 C 166.167969 157.371094 166.464844 157.210938 166.777344 157.082031 C 167.089844 156.953125 167.414062 156.855469 167.746094 156.789062 C 168.078125 156.722656 168.414062 156.691406 168.753906 156.691406 C 169.089844 156.691406 169.425781 156.722656 169.757812 156.789062 C 170.089844 156.855469 170.414062 156.953125 170.726562 157.082031 C 171.039062 157.210938 171.335938 157.371094 171.617188 157.558594 C 171.902344 157.746094 172.160156 157.960938 172.402344 158.199219 L 184.21875 170.023438 L 196.035156 158.199219 C 196.273438 157.957031 196.535156 157.746094 196.816406 157.554688 C 197.097656 157.367188 197.394531 157.207031 197.707031 157.078125 C 198.019531 156.949219 198.34375 156.851562 198.675781 156.785156 C 199.007812 156.71875 199.34375 156.683594 199.683594 156.683594 C 200.023438 156.683594 200.359375 156.71875 200.691406 156.785156 C 201.023438 156.851562 201.347656 156.949219 201.660156 157.078125 C 201.972656 157.207031 202.269531 157.367188 202.550781 157.554688 C 202.832031 157.746094 203.09375 157.957031 203.332031 158.199219 Z M 137.820312 182.46875 L 137.820312 223.714844 C 137.820312 224.050781 137.785156 224.386719 137.71875 224.71875 C 137.652344 225.050781 137.554688 225.375 137.425781 225.6875 C 137.296875 226 137.136719 226.296875 136.949219 226.578125 C 136.761719 226.859375 136.546875 227.121094 136.308594 227.359375 C 136.070312 227.597656 135.808594 227.8125 135.527344 228 C 135.246094 228.1875 134.949219 228.347656 134.636719 228.476562 C 134.324219 228.605469 134 228.703125 133.667969 228.769531 C 133.335938 228.835938 133.003906 228.867188 132.664062 228.867188 C 132.324219 228.867188 131.988281 228.835938 131.65625 228.769531 C 131.324219 228.703125 131.003906 228.605469 130.691406 228.476562 C 130.378906 228.347656 130.082031 228.1875 129.800781 228 C 129.519531 227.8125 129.257812 227.597656 129.019531 227.359375 C 128.777344 227.121094 128.566406 226.859375 128.375 226.578125 C 128.1875 226.296875 128.03125 226 127.902344 225.6875 C 127.769531 225.375 127.671875 225.050781 127.605469 224.71875 C 127.542969 224.386719 127.507812 224.050781 127.507812 223.714844 L 127.507812 182.46875 C 127.507812 182.132812 127.542969 181.796875 127.605469 181.464844 C 127.671875 181.132812 127.769531 180.808594 127.902344 180.496094 C 128.03125 180.183594 128.1875 179.886719 128.375 179.605469 C 128.566406 179.324219 128.777344 179.0625 129.019531 178.824219 C 129.257812 178.585938 129.519531 178.371094 129.800781 178.183594 C 130.082031 177.996094 130.378906 177.835938 130.691406 177.707031 C 131.003906 177.578125 131.324219 177.480469 131.65625 177.414062 C 131.988281 177.347656 132.324219 177.316406 132.664062 177.316406 C 133.003906 177.316406 133.335938 177.347656 133.667969 177.414062 C 134 177.480469 134.324219 177.578125 134.636719 177.707031 C 134.949219 177.835938 135.246094 177.996094 135.527344 178.183594 C 135.808594 178.371094 136.070312 178.585938 136.308594 178.824219 C 136.546875 179.0625 136.761719 179.324219 136.949219 179.605469 C 137.136719 179.886719 137.296875 180.183594 137.425781 180.496094 C 137.554688 180.808594 137.652344 181.132812 137.71875 181.464844 C 137.785156 181.796875 137.820312 182.132812 137.820312 182.46875 Z M 240.925781 182.46875 L 240.925781 223.714844 C 240.925781 224.050781 240.894531 224.386719 240.828125 224.71875 C 240.761719 225.050781 240.664062 225.375 240.535156 225.6875 C 240.40625 226 240.246094 226.296875 240.058594 226.578125 C 239.871094 226.859375 239.65625 227.121094 239.417969 227.359375 C 239.179688 227.597656 238.917969 227.8125 238.636719 228 C 238.355469 228.1875 238.058594 228.347656 237.746094 228.476562 C 237.433594 228.605469 237.109375 228.703125 236.777344 228.769531 C 236.445312 228.835938 236.109375 228.867188 235.773438 228.867188 C 235.433594 228.867188 235.097656 228.835938 234.765625 228.769531 C 234.433594 228.703125 234.113281 228.605469 233.796875 228.476562 C 233.484375 228.347656 233.1875 228.1875 232.90625 228 C 232.625 227.8125 232.367188 227.597656 232.125 227.359375 C 231.886719 227.121094 231.671875 226.859375 231.484375 226.578125 C 231.296875 226.296875 231.136719 226 231.007812 225.6875 C 230.878906 225.375 230.78125 225.050781 230.714844 224.71875 C 230.648438 224.386719 230.617188 224.050781 230.617188 223.714844 L 230.617188 182.46875 C 230.617188 182.132812 230.648438 181.796875 230.714844 181.464844 C 230.78125 181.132812 230.878906 180.808594 231.007812 180.496094 C 231.136719 180.183594 231.296875 179.886719 231.484375 179.605469 C 231.671875 179.324219 231.886719 179.0625 232.125 178.824219 C 232.367188 178.585938 232.625 178.371094 232.90625 178.183594 C 233.1875 177.996094 233.484375 177.835938 233.796875 177.707031 C 234.113281 177.578125 234.433594 177.480469 234.765625 177.414062 C 235.097656 177.347656 235.433594 177.316406 235.773438 177.316406 C 236.109375 177.316406 236.445312 177.347656 236.777344 177.414062 C 237.109375 177.480469 237.433594 177.578125 237.746094 177.707031 C 238.058594 177.835938 238.355469 177.996094 238.636719 178.183594 C 238.917969 178.371094 239.179688 178.585938 239.417969 178.824219 C 239.65625 179.0625 239.871094 179.324219 240.058594 179.605469 C 240.246094 179.886719 240.40625 180.183594 240.535156 180.496094 C 240.664062 180.808594 240.761719 181.132812 240.828125 181.464844 C 240.894531 181.796875 240.925781 182.132812 240.925781 182.46875 Z M 282.171875 187.335938 L 282.171875 223.714844 C 282.171875 224.050781 282.136719 224.386719 282.070312 224.71875 C 282.003906 225.050781 281.90625 225.375 281.777344 225.6875 C 281.648438 226 281.488281 226.296875 281.300781 226.578125 C 281.113281 226.859375 280.898438 227.121094 280.660156 227.359375 C 280.421875 227.597656 280.160156 227.8125 279.878906 228 C 279.597656 228.1875 279.300781 228.347656 278.988281 228.476562 C 278.675781 228.605469 278.351562 228.703125 278.019531 228.769531 C 277.6875 228.835938 277.355469 228.867188 277.015625 228.867188 C 276.675781 228.867188 276.339844 228.835938 276.007812 228.769531 C 275.675781 228.703125 275.355469 228.605469 275.042969 228.476562 C 274.730469 228.347656 274.433594 228.1875 274.152344 228 C 273.871094 227.8125 273.609375 227.597656 273.371094 227.359375 C 273.128906 227.121094 272.917969 226.859375 272.726562 226.578125 C 272.539062 226.296875 272.382812 226 272.253906 225.6875 C 272.121094 225.375 272.023438 225.050781 271.957031 224.71875 C 271.894531 224.386719 271.859375 224.050781 271.859375 223.714844 L 271.859375 187.335938 C 271.867188 185.667969 271.753906 184.007812 271.53125 182.355469 C 271.304688 180.703125 270.964844 179.070312 270.511719 177.464844 C 270.058594 175.859375 269.496094 174.292969 268.824219 172.765625 C 268.152344 171.238281 267.378906 169.765625 266.5 168.347656 C 265.621094 166.925781 264.652344 165.578125 263.585938 164.292969 C 262.519531 163.007812 261.371094 161.804688 260.136719 160.683594 C 258.902344 159.558594 257.59375 158.527344 256.21875 157.585938 C 254.839844 156.644531 253.402344 155.804688 251.90625 155.0625 L 233.460938 145.785156 C 233.117188 145.613281 232.796875 145.40625 232.5 145.160156 C 232.203125 144.917969 231.9375 144.644531 231.703125 144.34375 C 231.464844 144.039062 231.265625 143.714844 231.101562 143.367188 C 230.941406 143.019531 230.816406 142.65625 230.734375 142.28125 C 230.652344 141.90625 230.613281 141.527344 230.613281 141.144531 C 230.617188 140.757812 230.660156 140.378906 230.75 140.007812 C 230.835938 139.632812 230.960938 139.273438 231.128906 138.925781 C 231.296875 138.582031 231.5 138.257812 231.738281 137.957031 L 259.578125 103.148438 C 259.882812 102.769531 260.125 102.355469 260.3125 101.90625 C 260.5 101.460938 260.621094 100.992188 260.671875 100.511719 C 260.726562 100.027344 260.714844 99.546875 260.632812 99.070312 C 260.550781 98.589844 260.40625 98.132812 260.195312 97.695312 C 259.984375 97.257812 259.71875 96.859375 259.394531 96.496094 C 259.070312 96.132812 258.703125 95.824219 258.292969 95.566406 C 257.882812 95.308594 257.441406 95.113281 256.976562 94.976562 C 256.507812 94.84375 256.035156 94.777344 255.546875 94.777344 L 245.816406 94.777344 C 245.949219 93.074219 246.070312 91.363281 246.070312 89.621094 L 246.070312 84.515625 L 255.546875 84.515625 C 257.003906 84.515625 258.433594 84.71875 259.835938 85.121094 C 261.238281 85.523438 262.554688 86.113281 263.789062 86.886719 C 265.023438 87.664062 266.128906 88.59375 267.097656 89.679688 C 268.070312 90.769531 268.871094 91.96875 269.503906 93.28125 C 270.132812 94.597656 270.570312 95.972656 270.8125 97.410156 C 271.054688 98.847656 271.09375 100.289062 270.929688 101.738281 C 270.765625 103.1875 270.402344 104.585938 269.839844 105.929688 C 269.28125 107.277344 268.542969 108.519531 267.632812 109.65625 L 243.773438 139.464844 L 256.515625 145.835938 C 258.4375 146.789062 260.285156 147.871094 262.058594 149.082031 C 263.828125 150.292969 265.507812 151.621094 267.09375 153.0625 C 268.679688 154.507812 270.15625 156.054688 271.527344 157.707031 C 272.898438 159.359375 274.148438 161.09375 275.273438 162.921875 C 276.402344 164.746094 277.398438 166.640625 278.261719 168.601562 C 279.125 170.566406 279.851562 172.582031 280.433594 174.644531 C 281.015625 176.710938 281.453125 178.804688 281.742188 180.929688 C 282.035156 183.054688 282.175781 185.191406 282.171875 187.335938 Z M 134.972656 145.835938 L 116.527344 155.117188 C 115.035156 155.855469 113.597656 156.695312 112.222656 157.632812 C 110.847656 158.574219 109.542969 159.605469 108.308594 160.726562 C 107.078125 161.847656 105.929688 163.046875 104.863281 164.328125 C 103.796875 165.609375 102.824219 166.960938 101.949219 168.375 C 101.070312 169.792969 100.296875 171.265625 99.625 172.789062 C 98.953125 174.3125 98.390625 175.878906 97.933594 177.480469 C 97.480469 179.082031 97.140625 180.710938 96.910156 182.363281 C 96.683594 184.011719 96.570312 185.671875 96.574219 187.335938 L 96.574219 223.714844 C 96.574219 224.050781 96.542969 224.386719 96.476562 224.71875 C 96.410156 225.050781 96.3125 225.375 96.183594 225.6875 C 96.054688 226 95.894531 226.296875 95.707031 226.578125 C 95.519531 226.859375 95.304688 227.121094 95.066406 227.359375 C 94.828125 227.597656 94.566406 227.8125 94.285156 228 C 94.003906 228.1875 93.707031 228.347656 93.394531 228.476562 C 93.082031 228.605469 92.757812 228.703125 92.425781 228.769531 C 92.09375 228.835938 91.757812 228.867188 91.421875 228.867188 C 91.082031 228.867188 90.746094 228.835938 90.414062 228.769531 C 90.082031 228.703125 89.761719 228.605469 89.449219 228.476562 C 89.132812 228.347656 88.835938 228.1875 88.554688 228 C 88.273438 227.8125 88.015625 227.597656 87.773438 227.359375 C 87.535156 227.121094 87.320312 226.859375 87.132812 226.578125 C 86.945312 226.296875 86.785156 226 86.65625 225.6875 C 86.527344 225.375 86.429688 225.050781 86.363281 224.71875 C 86.296875 224.386719 86.265625 224.050781 86.265625 223.714844 L 86.265625 187.335938 C 86.257812 185.191406 86.398438 183.058594 86.691406 180.929688 C 86.980469 178.804688 87.417969 176.710938 88 174.648438 C 88.582031 172.582031 89.304688 170.570312 90.167969 168.605469 C 91.03125 166.640625 92.027344 164.746094 93.15625 162.921875 C 94.285156 161.097656 95.53125 159.359375 96.902344 157.710938 C 98.273438 156.058594 99.75 154.511719 101.335938 153.066406 C 102.921875 151.621094 104.597656 150.292969 106.371094 149.082031 C 108.140625 147.871094 109.984375 146.789062 111.90625 145.835938 L 124.652344 139.464844 L 100.792969 109.65625 C 99.882812 108.519531 99.144531 107.277344 98.585938 105.929688 C 98.023438 104.585938 97.660156 103.1875 97.496094 101.738281 C 97.332031 100.289062 97.367188 98.847656 97.613281 97.410156 C 97.855469 95.972656 98.292969 94.597656 98.921875 93.28125 C 99.554688 91.96875 100.355469 90.769531 101.328125 89.679688 C 102.296875 88.59375 103.402344 87.664062 104.636719 86.886719 C 105.871094 86.113281 107.1875 85.523438 108.589844 85.121094 C 109.988281 84.71875 111.417969 84.515625 112.878906 84.515625 L 122.351562 84.515625 L 122.351562 89.671875 C 122.351562 91.414062 122.476562 93.128906 122.609375 94.828125 L 112.878906 94.828125 C 112.390625 94.828125 111.914062 94.894531 111.449219 95.027344 C 110.980469 95.164062 110.542969 95.359375 110.132812 95.617188 C 109.722656 95.875 109.355469 96.1875 109.03125 96.546875 C 108.707031 96.910156 108.441406 97.308594 108.230469 97.746094 C 108.019531 98.183594 107.871094 98.640625 107.792969 99.121094 C 107.710938 99.601562 107.695312 100.082031 107.75 100.5625 C 107.804688 101.046875 107.925781 101.511719 108.113281 101.960938 C 108.296875 102.40625 108.542969 102.820312 108.84375 103.199219 L 136.683594 138.011719 C 136.925781 138.308594 137.128906 138.632812 137.296875 138.980469 C 137.460938 139.324219 137.589844 139.683594 137.675781 140.058594 C 137.761719 140.433594 137.808594 140.8125 137.808594 141.195312 C 137.8125 141.578125 137.773438 141.957031 137.691406 142.332031 C 137.609375 142.707031 137.484375 143.070312 137.320312 143.417969 C 137.160156 143.765625 136.957031 144.089844 136.722656 144.394531 C 136.488281 144.695312 136.21875 144.96875 135.921875 145.214844 C 135.625 145.457031 135.304688 145.664062 134.960938 145.835938 Z M 134.972656 145.835938 " fill-opacity="1" fill-rule="nonzero"/></g></svg>