<svg xmlns="http://www.w3.org/2000/svg" xmlns:xlink="http://www.w3.org/1999/xlink" width="500" zoomAndPan="magnify" viewBox="0 0 375 374.999991" height="500" preserveAspectRatio="xMidYMid meet" version="1.0"><defs><g/><clipPath id="1493a92de4"><path d="M 51 253 L 105 253 L 105 307 L 51 307 Z M 51 253 " clip-rule="nonzero"/></clipPath><clipPath id="09f698a917"><path d="M 48.871094 256.160156 L 127.921875 247.722656 L 136.28125 326.027344 L 57.226562 334.464844 Z M 48.871094 256.160156 " clip-rule="nonzero"/></clipPath><clipPath id="80de8fb5aa"><path d="M 48.871094 256.160156 L 127.921875 247.722656 L 136.28125 326.027344 L 57.226562 334.464844 Z M 48.871094 256.160156 " clip-rule="nonzero"/></clipPath><clipPath id="41e247a249"><path d="M 97 294 L 109 294 L 109 307 L 97 307 Z M 97 294 " clip-rule="nonzero"/></clipPath><clipPath id="aac2eed7df"><path d="M 48.871094 256.160156 L 127.921875 247.722656 L 136.28125 326.027344 L 57.226562 334.464844 Z M 48.871094 256.160156 " clip-rule="nonzero"/></clipPath><clipPath id="18b6ecdb9e"><path d="M 48.871094 256.160156 L 127.921875 247.722656 L 136.28125 326.027344 L 57.226562 334.464844 Z M 48.871094 256.160156 " clip-rule="nonzero"/></clipPath><clipPath id="06bb2fef5f"><path d="M 107 301 L 136 301 L 136 327 L 107 327 Z M 107 301 " clip-rule="nonzero"/></clipPath><clipPath id="d4e72e2c2c"><path d="M 48.871094 256.160156 L 127.921875 247.722656 L 136.28125 326.027344 L 57.226562 334.464844 Z M 48.871094 256.160156 " clip-rule="nonzero"/></clipPath><clipPath id="a4d59f034a"><path d="M 48.871094 256.160156 L 127.921875 247.722656 L 136.28125 326.027344 L 57.226562 334.464844 Z M 48.871094 256.160156 " clip-rule="nonzero"/></clipPath><clipPath id="17a0aa8526"><path d="M 59 271 L 87 271 L 87 299 L 59 299 Z M 59 271 " clip-rule="nonzero"/></clipPath><clipPath id="df4d7eab63"><path d="M 48.871094 256.160156 L 127.921875 247.722656 L 136.28125 326.027344 L 57.226562 334.464844 Z M 48.871094 256.160156 " clip-rule="nonzero"/></clipPath><clipPath id="96ae99e2fe"><path d="M 48.871094 256.160156 L 127.921875 247.722656 L 136.28125 326.027344 L 57.226562 334.464844 Z M 48.871094 256.160156 " clip-rule="nonzero"/></clipPath><clipPath id="97bffbc584"><path d="M 114.5625 37.5 L 260.8125 37.5 L 260.8125 198.75 L 114.5625 198.75 Z M 114.5625 37.5 " clip-rule="nonzero"/></clipPath></defs><g clip-path="url(#1493a92de4)"><g clip-path="url(#09f698a917)"><g clip-path="url(#80de8fb5aa)"><path fill="#a5be00" d="M 80.816406 305.953125 C 66.3125 307.5 53.253906 296.964844 51.703125 282.457031 C 50.15625 267.953125 60.695312 254.894531 75.199219 253.347656 C 89.703125 251.800781 102.761719 262.335938 104.308594 276.84375 C 105.859375 291.347656 95.316406 304.40625 80.816406 305.953125 Z M 75.660156 257.671875 C 74.941406 257.75 74.226562 257.863281 73.519531 258.007812 C 72.808594 258.15625 72.109375 258.335938 71.417969 258.554688 C 70.726562 258.769531 70.050781 259.019531 69.382812 259.300781 C 68.714844 259.582031 68.066406 259.898438 67.429688 260.242188 C 66.792969 260.589844 66.175781 260.96875 65.578125 261.375 C 64.980469 261.78125 64.402344 262.21875 63.847656 262.679688 C 63.292969 263.144531 62.757812 263.632812 62.25 264.148438 C 61.742188 264.667969 61.261719 265.207031 60.808594 265.769531 C 60.355469 266.332031 59.925781 266.917969 59.53125 267.523438 C 59.132812 268.128906 58.765625 268.75 58.429688 269.390625 C 58.09375 270.03125 57.789062 270.6875 57.519531 271.359375 C 57.246094 272.03125 57.011719 272.714844 56.804688 273.40625 C 56.601562 274.101562 56.429688 274.804688 56.296875 275.515625 C 56.160156 276.226562 56.058594 276.941406 55.996094 277.664062 C 55.929688 278.386719 55.898438 279.105469 55.90625 279.832031 C 55.910156 280.554688 55.953125 281.277344 56.03125 281.996094 C 56.105469 282.714844 56.21875 283.429688 56.367188 284.140625 C 56.511719 284.847656 56.695312 285.546875 56.910156 286.238281 C 57.125 286.929688 57.375 287.609375 57.65625 288.273438 C 57.941406 288.941406 58.253906 289.59375 58.601562 290.226562 C 58.949219 290.863281 59.324219 291.480469 59.730469 292.078125 C 60.136719 292.679688 60.574219 293.253906 61.039062 293.8125 C 61.5 294.367188 61.992188 294.898438 62.507812 295.40625 C 63.023438 295.914062 63.5625 296.394531 64.125 296.847656 C 64.6875 297.304688 65.273438 297.730469 65.878906 298.128906 C 66.484375 298.523438 67.105469 298.890625 67.75 299.226562 C 68.390625 299.5625 69.046875 299.867188 69.714844 300.136719 C 70.386719 300.410156 71.070312 300.648438 71.765625 300.851562 C 72.457031 301.058594 73.160156 301.226562 73.871094 301.363281 C 74.582031 301.496094 75.300781 301.597656 76.019531 301.664062 C 76.742188 301.726562 77.464844 301.757812 78.1875 301.75 C 78.910156 301.746094 79.632812 301.703125 80.351562 301.628906 C 81.074219 301.550781 81.789062 301.4375 82.496094 301.292969 C 83.203125 301.144531 83.90625 300.964844 84.59375 300.746094 C 85.285156 300.53125 85.964844 300.28125 86.632812 300 C 87.296875 299.71875 87.949219 299.402344 88.585938 299.054688 C 89.21875 298.710938 89.835938 298.332031 90.4375 297.925781 C 91.035156 297.519531 91.613281 297.082031 92.167969 296.621094 C 92.722656 296.15625 93.253906 295.667969 93.761719 295.152344 C 94.269531 294.632812 94.75 294.09375 95.207031 293.53125 C 95.660156 292.96875 96.085938 292.382812 96.484375 291.777344 C 96.882812 291.171875 97.246094 290.550781 97.582031 289.910156 C 97.917969 289.269531 98.222656 288.613281 98.496094 287.941406 C 98.765625 287.269531 99.003906 286.585938 99.210938 285.894531 C 99.414062 285.199219 99.582031 284.496094 99.71875 283.785156 C 99.855469 283.074219 99.953125 282.359375 100.019531 281.636719 C 100.085938 280.914062 100.113281 280.195312 100.109375 279.46875 C 100.101562 278.746094 100.0625 278.023438 99.984375 277.304688 C 99.90625 276.585938 99.792969 275.871094 99.644531 275.164062 C 99.5 274.453125 99.316406 273.753906 99.101562 273.066406 C 98.882812 272.375 98.632812 271.695312 98.351562 271.03125 C 98.066406 270.363281 97.753906 269.714844 97.40625 269.078125 C 97.058594 268.441406 96.683594 267.828125 96.277344 267.226562 C 95.867188 266.628906 95.433594 266.054688 94.96875 265.5 C 94.503906 264.941406 94.015625 264.410156 93.5 263.902344 C 92.984375 263.398438 92.445312 262.914062 91.882812 262.460938 C 91.316406 262.007812 90.734375 261.582031 90.128906 261.183594 C 89.523438 260.789062 88.902344 260.421875 88.261719 260.085938 C 87.621094 259.75 86.964844 259.445312 86.292969 259.171875 C 85.621094 258.902344 84.941406 258.664062 84.246094 258.457031 C 83.550781 258.253906 82.851562 258.082031 82.140625 257.949219 C 81.429688 257.8125 80.714844 257.710938 79.992188 257.644531 C 79.273438 257.578125 78.550781 257.550781 77.828125 257.554688 C 77.101562 257.558594 76.382812 257.601562 75.660156 257.675781 Z M 75.660156 257.671875 " fill-opacity="1" fill-rule="nonzero"/></g></g></g><g clip-path="url(#41e247a249)"><g clip-path="url(#aac2eed7df)"><g clip-path="url(#18b6ecdb9e)"><path fill="#a5be00" d="M 100.113281 306.769531 C 99.625 306.820312 99.160156 306.734375 98.726562 306.503906 C 98.289062 306.277344 97.953125 305.949219 97.714844 305.515625 C 97.480469 305.085938 97.382812 304.625 97.425781 304.132812 C 97.46875 303.644531 97.644531 303.207031 97.953125 302.824219 L 103.929688 295.359375 C 104.125 295.085938 104.363281 294.863281 104.648438 294.6875 C 104.933594 294.511719 105.246094 294.402344 105.578125 294.351562 C 105.910156 294.304688 106.238281 294.328125 106.558594 294.414062 C 106.882812 294.503906 107.175781 294.652344 107.4375 294.859375 C 107.699219 295.070312 107.910156 295.320312 108.070312 295.617188 C 108.226562 295.914062 108.320312 296.230469 108.347656 296.5625 C 108.375 296.898438 108.335938 297.222656 108.230469 297.542969 C 108.121094 297.859375 107.957031 298.144531 107.734375 298.394531 L 101.753906 305.855469 C 101.335938 306.390625 100.785156 306.695312 100.113281 306.769531 Z M 100.113281 306.769531 " fill-opacity="1" fill-rule="nonzero"/></g></g></g><g clip-path="url(#06bb2fef5f)"><g clip-path="url(#d4e72e2c2c)"><g clip-path="url(#a4d59f034a)"><path fill="#a5be00" d="M 131.605469 326.382812 C 130.441406 326.511719 129.40625 326.199219 128.5 325.453125 L 108.730469 309.101562 C 108.515625 308.925781 108.324219 308.734375 108.152344 308.519531 C 107.976562 308.308594 107.828125 308.078125 107.699219 307.835938 C 107.570312 307.59375 107.46875 307.34375 107.386719 307.078125 C 107.308594 306.816406 107.257812 306.550781 107.230469 306.277344 C 107.207031 306.003906 107.207031 305.730469 107.234375 305.457031 C 107.261719 305.183594 107.316406 304.917969 107.398438 304.65625 C 107.476562 304.390625 107.582031 304.140625 107.710938 303.898438 C 107.84375 303.65625 107.996094 303.429688 108.171875 303.21875 C 108.34375 303.007812 108.539062 302.816406 108.75 302.644531 C 108.964844 302.46875 109.191406 302.320312 109.433594 302.191406 C 109.675781 302.0625 109.929688 301.957031 110.191406 301.878906 C 110.453125 301.800781 110.722656 301.75 110.996094 301.722656 C 111.269531 301.695312 111.542969 301.699219 111.8125 301.726562 C 112.085938 301.753906 112.355469 301.808594 112.617188 301.886719 C 112.878906 301.96875 113.128906 302.074219 113.371094 302.203125 C 113.613281 302.332031 113.839844 302.484375 114.050781 302.660156 L 133.824219 319.011719 C 134.140625 319.273438 134.414062 319.574219 134.640625 319.917969 C 134.867188 320.257812 135.042969 320.628906 135.160156 321.019531 C 135.28125 321.414062 135.339844 321.816406 135.339844 322.226562 C 135.339844 322.636719 135.28125 323.039062 135.164062 323.433594 C 135.042969 323.828125 134.871094 324.195312 134.644531 324.539062 C 134.417969 324.878906 134.144531 325.183594 133.828125 325.445312 C 133.511719 325.707031 133.164062 325.917969 132.785156 326.078125 C 132.40625 326.238281 132.015625 326.339844 131.605469 326.382812 Z M 131.605469 326.382812 " fill-opacity="1" fill-rule="nonzero"/></g></g></g><g clip-path="url(#17a0aa8526)"><g clip-path="url(#df4d7eab63)"><g clip-path="url(#96ae99e2fe)"><path fill="#a5be00" d="M 79.941406 298.179688 C 76.554688 298.542969 71.972656 298.050781 66.785156 294.875 C 62.230469 292.085938 59.757812 287.316406 59.636719 281.078125 C 59.589844 278.195312 59.976562 275.367188 60.792969 272.601562 C 60.847656 272.4375 60.933594 272.289062 61.042969 272.160156 C 61.15625 272.027344 61.289062 271.925781 61.445312 271.847656 C 61.597656 271.769531 61.761719 271.722656 61.933594 271.710938 C 62.105469 271.695312 62.273438 271.714844 62.4375 271.769531 C 62.601562 271.824219 62.75 271.90625 62.878906 272.019531 C 63.011719 272.128906 63.117188 272.261719 63.195312 272.417969 C 63.273438 272.570312 63.320312 272.730469 63.332031 272.902344 C 63.347656 273.074219 63.328125 273.242188 63.277344 273.410156 C 62.546875 275.917969 62.207031 278.480469 62.246094 281.089844 C 62.367188 286.433594 64.351562 290.316406 68.144531 292.644531 C 77.507812 298.378906 84.539062 294.148438 84.609375 294.105469 C 84.757812 294.007812 84.917969 293.945312 85.089844 293.914062 C 85.261719 293.882812 85.433594 293.886719 85.605469 293.925781 C 85.777344 293.960938 85.933594 294.03125 86.078125 294.132812 C 86.21875 294.234375 86.335938 294.359375 86.429688 294.511719 C 86.523438 294.660156 86.582031 294.820312 86.609375 294.992188 C 86.636719 295.167969 86.628906 295.339844 86.589844 295.507812 C 86.546875 295.679688 86.472656 295.835938 86.371094 295.976562 C 86.265625 296.117188 86.136719 296.230469 85.984375 296.320312 C 85.8125 296.4375 83.554688 297.796875 79.941406 298.179688 Z M 79.941406 298.179688 " fill-opacity="1" fill-rule="nonzero"/></g></g></g><g fill="#ebf2fa" fill-opacity="1"><g transform="translate(2.613286, 305.218984)"><g><path d="M 21.640625 0.578125 C 18.960938 0.578125 16.550781 0.175781 14.40625 -0.625 C 12.257812 -1.4375 10.394531 -2.550781 8.8125 -3.96875 C 7.226562 -5.382812 5.945312 -7.039062 4.96875 -8.9375 C 4 -10.832031 3.316406 -12.863281 2.921875 -15.03125 L 14.03125 -18.453125 C 14.53125 -15.671875 15.40625 -13.554688 16.65625 -12.109375 C 17.914062 -10.660156 19.492188 -9.9375 21.390625 -9.9375 C 22.890625 -9.9375 24.113281 -10.253906 25.0625 -10.890625 C 26.007812 -11.535156 26.71875 -12.414062 27.1875 -13.53125 C 27.664062 -14.644531 27.90625 -15.953125 27.90625 -17.453125 L 27.90625 -58.3125 L 39.765625 -58.3125 L 39.765625 -17.453125 C 39.765625 -13.609375 39.007812 -10.347656 37.5 -7.671875 C 36 -5.003906 33.882812 -2.960938 31.15625 -1.546875 C 28.425781 -0.128906 25.253906 0.578125 21.640625 0.578125 Z M 21.640625 0.578125 "/></g></g></g><g fill="#ebf2fa" fill-opacity="1"><g transform="translate(50.226564, 305.218984)"><g/></g></g><g fill="#ebf2fa" fill-opacity="1"><g transform="translate(70.020687, 305.218984)"><g/></g></g><g fill="#ebf2fa" fill-opacity="1"><g transform="translate(89.81481, 305.218984)"><g/></g></g><g fill="#ebf2fa" fill-opacity="1"><g transform="translate(109.617185, 305.218984)"><g><path d="M 33.078125 0.578125 C 29.460938 0.578125 26.273438 -0.363281 23.515625 -2.25 C 20.753906 -4.144531 18.789062 -6.789062 17.625 -10.1875 L 17.625 -6.265625 C 17.625 -4.367188 17.066406 -2.847656 15.953125 -1.703125 C 14.835938 -0.566406 13.304688 0 11.359375 0 L 5.765625 0 L 5.765625 -61.8125 L 17.625 -61.8125 L 17.625 -36.171875 C 18.789062 -39.515625 20.753906 -42.128906 23.515625 -44.015625 C 26.273438 -45.910156 29.460938 -46.859375 33.078125 -46.859375 C 37.140625 -46.859375 40.742188 -45.84375 43.890625 -43.8125 C 47.035156 -41.78125 49.5 -38.984375 51.28125 -35.421875 C 53.070312 -31.859375 53.96875 -27.765625 53.96875 -23.140625 C 53.96875 -18.566406 53.070312 -14.484375 51.28125 -10.890625 C 49.5 -7.304688 47.035156 -4.5 43.890625 -2.46875 C 40.742188 -0.4375 37.140625 0.578125 33.078125 0.578125 Z M 29.734375 -9.6875 C 31.847656 -9.6875 33.820312 -10.210938 35.65625 -11.265625 C 37.5 -12.328125 38.988281 -13.859375 40.125 -15.859375 C 41.269531 -17.867188 41.84375 -20.296875 41.84375 -23.140625 C 41.84375 -26.085938 41.269531 -28.550781 40.125 -30.53125 C 38.988281 -32.507812 37.5 -34.015625 35.65625 -35.046875 C 33.820312 -36.078125 31.847656 -36.59375 29.734375 -36.59375 C 27.617188 -36.59375 25.640625 -36.078125 23.796875 -35.046875 C 21.960938 -34.015625 20.472656 -32.492188 19.328125 -30.484375 C 18.191406 -28.484375 17.625 -26.035156 17.625 -23.140625 C 17.625 -20.296875 18.191406 -17.867188 19.328125 -15.859375 C 20.472656 -13.859375 21.960938 -12.328125 23.796875 -11.265625 C 25.640625 -10.210938 27.617188 -9.6875 29.734375 -9.6875 Z M 29.734375 -9.6875 "/></g></g></g><g fill="#ebf2fa" fill-opacity="1"><g transform="translate(166.326936, 305.218984)"><g><path d="M 5.765625 -58.3125 L 17.546875 -58.3125 L 17.546875 0 L 5.765625 0 Z M 42.4375 -58.3125 L 54.21875 -58.3125 L 54.21875 0 L 42.4375 0 Z M 15.875 -34.328125 L 44.515625 -34.328125 L 44.515625 -24.8125 L 15.875 -24.8125 Z M 15.875 -34.328125 "/></g></g></g><g fill="#ebf2fa" fill-opacity="1"><g transform="translate(226.29395, 305.218984)"><g><path d="M 37.671875 -6.265625 L 37.671875 -46.28125 L 49.53125 -46.28125 L 49.53125 0 L 43.9375 0 C 42.039062 0 40.519531 -0.566406 39.375 -1.703125 C 38.238281 -2.847656 37.671875 -4.367188 37.671875 -6.265625 Z M 23.3125 0.578125 C 19.632812 0.578125 16.441406 -0.195312 13.734375 -1.75 C 11.035156 -3.3125 8.960938 -5.566406 7.515625 -8.515625 C 6.066406 -11.472656 5.34375 -15.039062 5.34375 -19.21875 L 5.34375 -46.28125 L 17.046875 -46.28125 L 17.046875 -21.21875 C 17.046875 -17.488281 17.988281 -14.601562 19.875 -12.5625 C 21.769531 -10.53125 24.25 -9.515625 27.3125 -9.515625 C 29.425781 -9.515625 31.265625 -10.054688 32.828125 -11.140625 C 34.390625 -12.234375 35.585938 -13.722656 36.421875 -15.609375 C 37.253906 -17.503906 37.671875 -19.648438 37.671875 -22.046875 L 39.515625 -19.625 C 39.347656 -15.007812 38.5 -11.195312 36.96875 -8.1875 C 35.4375 -5.175781 33.484375 -2.960938 31.109375 -1.546875 C 28.742188 -0.128906 26.144531 0.578125 23.3125 0.578125 Z M 23.3125 0.578125 "/></g></g></g><g fill="#ebf2fa" fill-opacity="1"><g transform="translate(281.500349, 305.218984)"><g><path d="M 5.765625 0 L 5.765625 -46.28125 L 17.546875 -46.28125 L 17.546875 -36.5 C 18.265625 -38.5625 19.375 -40.367188 20.875 -41.921875 C 22.382812 -43.484375 24.140625 -44.695312 26.140625 -45.5625 C 28.148438 -46.425781 30.210938 -46.859375 32.328125 -46.859375 C 35.835938 -46.859375 38.914062 -46.078125 41.5625 -44.515625 C 44.207031 -42.960938 46.253906 -40.722656 47.703125 -37.796875 C 49.148438 -34.867188 49.875 -31.347656 49.875 -27.234375 L 49.875 0 L 38.171875 0 L 38.171875 -25.0625 C 38.171875 -28.738281 37.222656 -31.617188 35.328125 -33.703125 C 33.441406 -35.796875 30.96875 -36.84375 27.90625 -36.84375 C 25.84375 -36.84375 24.03125 -36.296875 22.46875 -35.203125 C 20.90625 -34.117188 19.691406 -32.628906 18.828125 -30.734375 C 17.972656 -28.847656 17.546875 -26.675781 17.546875 -24.21875 L 17.546875 0 Z M 5.765625 0 "/></g></g></g><g fill="#ebf2fa" fill-opacity="1"><g transform="translate(336.706747, 305.218984)"><g><path d="M 23.390625 0.578125 C 19.046875 0.578125 15.601562 -0.710938 13.0625 -3.296875 C 10.53125 -5.890625 9.265625 -9.582031 9.265625 -14.375 L 9.265625 -36.671875 L 2.09375 -36.671875 L 2.09375 -46.28125 L 31.40625 -46.28125 L 31.40625 -36.671875 L 21.21875 -36.671875 L 21.21875 -13.953125 C 21.21875 -12.503906 21.632812 -11.414062 22.46875 -10.6875 C 23.300781 -9.96875 24.25 -9.609375 25.3125 -9.609375 C 25.976562 -9.609375 26.601562 -9.71875 27.1875 -9.9375 C 27.769531 -10.164062 28.34375 -10.5 28.90625 -10.9375 L 33.078125 -2.84375 C 31.628906 -1.664062 30.125 -0.800781 28.5625 -0.25 C 27.007812 0.300781 25.285156 0.578125 23.390625 0.578125 Z M 5.59375 -42.59375 L 5.59375 -46.28125 C 6.820312 -46.28125 7.78125 -46.640625 8.46875 -47.359375 C 9.164062 -48.085938 9.515625 -49.0625 9.515625 -50.28125 L 9.515625 -57.71875 L 21.21875 -57.71875 L 21.21875 -52.203125 C 21.21875 -51.367188 21.007812 -50.535156 20.59375 -49.703125 C 20.175781 -48.867188 19.601562 -48.144531 18.875 -47.53125 C 18.15625 -46.914062 17.289062 -46.5 16.28125 -46.28125 Z M 5.59375 -42.59375 "/></g></g></g><g clip-path="url(#97bffbc584)"><path fill="#a5be00" d="M 222.039062 79.714844 C 222.039062 79.621094 221.992188 79.539062 221.984375 79.445312 C 226.382812 78.433594 230.699219 77.152344 234.941406 75.609375 C 235.179688 75.519531 235.40625 75.410156 235.625 75.277344 C 235.84375 75.140625 236.042969 74.988281 236.230469 74.816406 C 236.417969 74.640625 236.585938 74.449219 236.734375 74.242188 C 236.882812 74.035156 237.007812 73.816406 237.113281 73.585938 C 237.21875 73.351562 237.300781 73.113281 237.355469 72.863281 C 237.414062 72.613281 237.445312 72.363281 237.453125 72.109375 C 237.457031 71.851562 237.441406 71.601562 237.398438 71.347656 C 237.351562 71.097656 237.285156 70.855469 237.191406 70.617188 C 237.101562 70.378906 236.984375 70.152344 236.847656 69.9375 C 236.710938 69.722656 236.554688 69.523438 236.378906 69.339844 C 236.199219 69.15625 236.007812 68.992188 235.796875 68.847656 C 235.585938 68.703125 235.363281 68.582031 235.128906 68.480469 C 234.898438 68.378906 234.65625 68.300781 234.40625 68.25 C 234.15625 68.199219 233.902344 68.171875 233.648438 68.167969 C 233.394531 68.164062 233.140625 68.1875 232.890625 68.238281 C 232.640625 68.285156 232.398438 68.359375 232.160156 68.453125 C 228.8125 69.667969 225.40625 70.691406 221.945312 71.523438 C 221.953125 71.378906 221.953125 71.234375 221.945312 71.085938 C 218.785156 58.554688 212.136719 37.5 202.851562 37.5 C 200.46875 37.613281 198.160156 38.082031 195.921875 38.898438 C 193.6875 39.714844 191.621094 40.84375 189.726562 42.289062 C 189.398438 42.515625 189.046875 42.6875 188.667969 42.808594 C 188.289062 42.925781 187.898438 42.984375 187.503906 42.984375 C 187.105469 42.984375 186.71875 42.925781 186.339844 42.808594 C 185.960938 42.6875 185.605469 42.515625 185.28125 42.289062 C 183.386719 40.84375 181.316406 39.714844 179.078125 38.898438 C 176.839844 38.082031 174.53125 37.617188 172.148438 37.5 C 162.863281 37.5 156.214844 58.554688 153.074219 71.109375 C 153.0625 71.253906 153.0625 71.394531 153.074219 71.539062 C 149.613281 70.699219 146.207031 69.675781 142.851562 68.46875 C 142.378906 68.296875 141.894531 68.21875 141.390625 68.238281 C 140.886719 68.253906 140.40625 68.367188 139.949219 68.574219 C 139.492188 68.78125 139.089844 69.066406 138.742188 69.429688 C 138.398438 69.796875 138.132812 70.214844 137.953125 70.683594 C 137.769531 71.152344 137.683594 71.636719 137.691406 72.140625 C 137.699219 72.640625 137.804688 73.125 138.003906 73.585938 C 138.199219 74.046875 138.480469 74.457031 138.839844 74.808594 C 139.195312 75.160156 139.609375 75.433594 140.074219 75.621094 C 144.3125 77.167969 148.632812 78.449219 153.03125 79.460938 C 153.03125 79.550781 152.976562 79.636719 152.976562 79.730469 L 152.976562 95.0625 C 152.976562 96.195312 153.03125 97.324219 153.144531 98.449219 C 153.253906 99.574219 153.421875 100.691406 153.640625 101.800781 C 153.863281 102.910156 154.136719 104.003906 154.464844 105.085938 C 154.792969 106.167969 155.175781 107.234375 155.609375 108.277344 C 156.042969 109.324219 156.523438 110.34375 157.058594 111.339844 C 157.589844 112.339844 158.171875 113.308594 158.800781 114.246094 C 159.429688 115.1875 160.101562 116.09375 160.820312 116.96875 C 161.539062 117.84375 162.296875 118.679688 163.097656 119.480469 C 163.894531 120.277344 164.734375 121.035156 165.609375 121.753906 C 166.480469 122.472656 167.390625 123.144531 168.328125 123.773438 C 169.269531 124.402344 170.238281 124.980469 171.238281 125.515625 C 172.234375 126.046875 173.253906 126.53125 174.300781 126.960938 C 175.34375 127.394531 176.410156 127.777344 177.492188 128.105469 C 178.574219 128.433594 179.667969 128.707031 180.777344 128.925781 C 181.886719 129.148438 183.003906 129.3125 184.128906 129.425781 C 185.253906 129.535156 186.382812 129.589844 187.515625 129.589844 C 188.644531 129.589844 189.773438 129.535156 190.898438 129.425781 C 192.023438 129.3125 193.140625 129.148438 194.25 128.925781 C 195.359375 128.707031 196.457031 128.433594 197.539062 128.105469 C 198.621094 127.777344 199.683594 127.394531 200.730469 126.960938 C 201.773438 126.53125 202.796875 126.046875 203.792969 125.515625 C 204.789062 124.980469 205.757812 124.402344 206.699219 123.773438 C 207.640625 123.144531 208.546875 122.472656 209.421875 121.753906 C 210.296875 121.035156 211.132812 120.277344 211.933594 119.480469 C 212.734375 118.679688 213.492188 117.84375 214.210938 116.96875 C 214.925781 116.09375 215.601562 115.1875 216.226562 114.246094 C 216.855469 113.308594 217.4375 112.339844 217.972656 111.339844 C 218.503906 110.34375 218.988281 109.324219 219.421875 108.277344 C 219.855469 107.234375 220.234375 106.167969 220.5625 105.085938 C 220.890625 104.003906 221.167969 102.910156 221.386719 101.800781 C 221.609375 100.691406 221.773438 99.574219 221.886719 98.449219 C 221.996094 97.324219 222.054688 96.195312 222.054688 95.0625 Z M 214.363281 95.0625 C 214.363281 95.945312 214.320312 96.820312 214.234375 97.695312 C 214.148438 98.574219 214.019531 99.441406 213.847656 100.304688 C 213.675781 101.167969 213.460938 102.019531 213.207031 102.863281 C 212.949219 103.703125 212.65625 104.53125 212.316406 105.34375 C 211.980469 106.15625 211.605469 106.953125 211.191406 107.726562 C 210.777344 108.503906 210.324219 109.257812 209.835938 109.988281 C 209.347656 110.71875 208.824219 111.425781 208.265625 112.105469 C 207.707031 112.785156 207.117188 113.4375 206.496094 114.058594 C 205.871094 114.679688 205.222656 115.273438 204.542969 115.828125 C 203.859375 116.386719 203.15625 116.910156 202.421875 117.398438 C 201.691406 117.890625 200.9375 118.339844 200.164062 118.753906 C 199.386719 119.171875 198.59375 119.546875 197.78125 119.882812 C 196.964844 120.21875 196.140625 120.515625 195.296875 120.769531 C 194.457031 121.027344 193.601562 121.238281 192.738281 121.410156 C 191.878906 121.582031 191.007812 121.710938 190.132812 121.796875 C 189.257812 121.882812 188.378906 121.925781 187.5 121.925781 C 186.621094 121.925781 185.742188 121.882812 184.867188 121.796875 C 183.992188 121.710938 183.121094 121.582031 182.257812 121.410156 C 181.394531 121.238281 180.542969 121.027344 179.703125 120.769531 C 178.859375 120.515625 178.03125 120.21875 177.21875 119.882812 C 176.40625 119.546875 175.613281 119.171875 174.835938 118.753906 C 174.058594 118.339844 173.304688 117.890625 172.574219 117.398438 C 171.84375 116.910156 171.136719 116.386719 170.457031 115.828125 C 169.777344 115.273438 169.125 114.679688 168.503906 114.058594 C 167.882812 113.4375 167.292969 112.785156 166.734375 112.105469 C 166.175781 111.425781 165.652344 110.71875 165.164062 109.988281 C 164.675781 109.257812 164.222656 108.503906 163.808594 107.726562 C 163.394531 106.953125 163.015625 106.15625 162.679688 105.34375 C 162.34375 104.53125 162.046875 103.703125 161.792969 102.863281 C 161.539062 102.019531 161.324219 101.167969 161.152344 100.304688 C 160.980469 99.441406 160.851562 98.574219 160.765625 97.695312 C 160.679688 96.820312 160.636719 95.945312 160.636719 95.0625 L 160.636719 83.550781 L 214.363281 83.550781 Z M 187.5 75.875 C 178.386719 75.851562 169.359375 74.953125 160.421875 73.175781 C 160.421875 73.097656 160.496094 73.042969 160.519531 72.96875 C 163.90625 59.449219 169.546875 46.195312 172.148438 45.175781 C 175.410156 45.476562 178.335938 46.625 180.9375 48.613281 C 181.902344 49.28125 182.941406 49.792969 184.0625 50.144531 C 185.183594 50.496094 186.328125 50.667969 187.503906 50.667969 C 188.675781 50.667969 189.824219 50.496094 190.945312 50.144531 C 192.0625 49.792969 193.105469 49.28125 194.070312 48.613281 C 196.609375 46.679688 199.464844 45.53125 202.636719 45.175781 C 205.453125 46.226562 211.078125 59.480469 214.476562 72.996094 C 214.476562 73.082031 214.585938 73.121094 214.617188 73.207031 C 205.664062 74.972656 196.625 75.863281 187.5 75.875 Z M 201.730469 146.074219 C 202.089844 146.433594 202.367188 146.847656 202.5625 147.320312 C 202.757812 147.789062 202.855469 148.28125 202.855469 148.789062 C 202.855469 149.300781 202.757812 149.789062 202.5625 150.261719 C 202.367188 150.730469 202.089844 151.148438 201.730469 151.507812 L 191.335938 161.890625 L 191.335938 194.84375 C 191.335938 195.351562 191.238281 195.839844 191.042969 196.3125 C 190.851562 196.78125 190.574219 197.195312 190.214844 197.554688 C 189.851562 197.914062 189.4375 198.191406 188.96875 198.386719 C 188.496094 198.582031 188.007812 198.679688 187.5 198.679688 C 186.992188 198.679688 186.5 198.582031 186.03125 198.386719 C 185.5625 198.191406 185.144531 197.914062 184.785156 197.554688 C 184.425781 197.195312 184.148438 196.78125 183.953125 196.3125 C 183.757812 195.839844 183.660156 195.351562 183.660156 194.84375 L 183.660156 161.890625 L 173.269531 151.507812 C 172.910156 151.148438 172.632812 150.730469 172.4375 150.261719 C 172.242188 149.789062 172.144531 149.300781 172.144531 148.792969 C 172.144531 148.28125 172.242188 147.792969 172.4375 147.320312 C 172.632812 146.851562 172.910156 146.4375 173.273438 146.074219 C 173.632812 145.714844 174.046875 145.4375 174.515625 145.242188 C 174.988281 145.046875 175.476562 144.949219 175.988281 144.949219 C 176.496094 144.949219 176.988281 145.046875 177.457031 145.242188 C 177.925781 145.4375 178.34375 145.714844 178.703125 146.074219 L 187.5 154.878906 L 196.296875 146.074219 C 196.65625 145.710938 197.070312 145.433594 197.542969 145.238281 C 198.011719 145.042969 198.503906 144.945312 199.011719 144.945312 C 199.523438 144.945312 200.011719 145.042969 200.484375 145.238281 C 200.953125 145.433594 201.371094 145.710938 201.730469 146.074219 Z M 152.960938 164.140625 L 152.960938 194.84375 C 152.960938 195.351562 152.863281 195.839844 152.667969 196.3125 C 152.472656 196.78125 152.195312 197.195312 151.835938 197.554688 C 151.476562 197.914062 151.0625 198.191406 150.589844 198.386719 C 150.121094 198.582031 149.632812 198.679688 149.125 198.679688 C 148.613281 198.679688 148.125 198.582031 147.65625 198.386719 C 147.183594 198.191406 146.769531 197.914062 146.410156 197.554688 C 146.050781 197.195312 145.773438 196.78125 145.578125 196.3125 C 145.382812 195.839844 145.285156 195.351562 145.285156 194.84375 L 145.285156 164.140625 C 145.285156 163.632812 145.382812 163.144531 145.578125 162.671875 C 145.773438 162.203125 146.050781 161.789062 146.410156 161.425781 C 146.769531 161.066406 147.183594 160.789062 147.65625 160.59375 C 148.125 160.402344 148.613281 160.304688 149.125 160.304688 C 149.632812 160.304688 150.121094 160.402344 150.59375 160.59375 C 151.0625 160.789062 151.476562 161.066406 151.835938 161.425781 C 152.195312 161.789062 152.472656 162.203125 152.667969 162.671875 C 152.863281 163.144531 152.960938 163.632812 152.960938 164.140625 Z M 229.714844 164.140625 L 229.714844 194.84375 C 229.714844 195.351562 229.617188 195.839844 229.421875 196.3125 C 229.226562 196.78125 228.949219 197.195312 228.589844 197.554688 C 228.230469 197.914062 227.8125 198.191406 227.34375 198.386719 C 226.875 198.582031 226.382812 198.679688 225.875 198.679688 C 225.367188 198.679688 224.878906 198.582031 224.40625 198.386719 C 223.9375 198.191406 223.523438 197.914062 223.160156 197.554688 C 222.800781 197.195312 222.523438 196.78125 222.328125 196.3125 C 222.136719 195.839844 222.039062 195.351562 222.039062 194.84375 L 222.039062 164.140625 C 222.039062 163.632812 222.136719 163.144531 222.328125 162.671875 C 222.523438 162.203125 222.800781 161.789062 223.160156 161.425781 C 223.523438 161.066406 223.9375 160.789062 224.40625 160.59375 C 224.878906 160.402344 225.367188 160.304688 225.875 160.304688 C 226.382812 160.304688 226.875 160.402344 227.34375 160.59375 C 227.8125 160.789062 228.230469 161.066406 228.589844 161.425781 C 228.949219 161.789062 229.226562 162.203125 229.421875 162.671875 C 229.617188 163.144531 229.714844 163.632812 229.714844 164.140625 Z M 260.414062 167.765625 L 260.414062 194.84375 C 260.414062 195.351562 260.316406 195.839844 260.121094 196.3125 C 259.925781 196.78125 259.648438 197.195312 259.289062 197.554688 C 258.929688 197.914062 258.515625 198.191406 258.042969 198.386719 C 257.574219 198.582031 257.085938 198.679688 256.578125 198.679688 C 256.066406 198.679688 255.578125 198.582031 255.109375 198.386719 C 254.636719 198.191406 254.222656 197.914062 253.863281 197.554688 C 253.503906 197.195312 253.226562 196.78125 253.03125 196.3125 C 252.835938 195.839844 252.738281 195.351562 252.738281 194.84375 L 252.738281 167.765625 C 252.742188 166.523438 252.660156 165.285156 252.492188 164.054688 C 252.324219 162.824219 252.074219 161.613281 251.734375 160.417969 C 251.398438 159.222656 250.980469 158.054688 250.480469 156.917969 C 249.980469 155.78125 249.402344 154.683594 248.75 153.628906 C 248.097656 152.570312 247.371094 151.566406 246.578125 150.609375 C 245.785156 149.65625 244.929688 148.757812 244.011719 147.921875 C 243.09375 147.085938 242.121094 146.316406 241.09375 145.617188 C 240.070312 144.917969 239 144.292969 237.886719 143.742188 L 224.15625 136.832031 C 223.902344 136.703125 223.664062 136.550781 223.441406 136.367188 C 223.21875 136.1875 223.023438 135.984375 222.847656 135.757812 C 222.671875 135.535156 222.523438 135.292969 222.398438 135.03125 C 222.277344 134.773438 222.1875 134.503906 222.125 134.226562 C 222.066406 133.945312 222.035156 133.664062 222.035156 133.378906 C 222.039062 133.09375 222.070312 132.808594 222.136719 132.53125 C 222.199219 132.253906 222.296875 131.984375 222.421875 131.726562 C 222.542969 131.472656 222.695312 131.230469 222.875 131.007812 L 243.597656 105.09375 C 244.058594 104.519531 244.328125 103.863281 244.410156 103.132812 C 244.496094 102.398438 244.375 101.699219 244.054688 101.035156 C 243.738281 100.371094 243.265625 99.84375 242.640625 99.449219 C 242.015625 99.058594 241.335938 98.863281 240.597656 98.863281 L 233.351562 98.863281 C 233.449219 97.597656 233.542969 96.324219 233.542969 95.027344 L 233.542969 91.226562 L 240.597656 91.226562 C 241.683594 91.226562 242.746094 91.375 243.789062 91.675781 C 244.832031 91.972656 245.8125 92.414062 246.730469 92.992188 C 247.652344 93.566406 248.472656 94.261719 249.195312 95.070312 C 249.917969 95.878906 250.515625 96.773438 250.984375 97.75 C 251.453125 98.730469 251.78125 99.753906 251.960938 100.824219 C 252.140625 101.894531 252.167969 102.96875 252.046875 104.046875 C 251.921875 105.125 251.652344 106.164062 251.234375 107.164062 C 250.820312 108.167969 250.269531 109.09375 249.59375 109.9375 L 231.832031 132.128906 L 241.316406 136.871094 C 242.75 137.582031 244.125 138.386719 245.441406 139.285156 C 246.761719 140.1875 248.007812 141.175781 249.191406 142.25 C 250.371094 143.328125 251.472656 144.480469 252.492188 145.707031 C 253.511719 146.9375 254.441406 148.230469 255.28125 149.589844 C 256.121094 150.945312 256.863281 152.355469 257.503906 153.820312 C 258.148438 155.28125 258.6875 156.78125 259.121094 158.316406 C 259.554688 159.851562 259.878906 161.414062 260.097656 162.996094 C 260.3125 164.578125 260.417969 166.167969 260.414062 167.765625 Z M 150.84375 136.871094 L 137.113281 143.777344 C 136 144.328125 134.933594 144.953125 133.90625 145.652344 C 132.882812 146.351562 131.910156 147.121094 130.996094 147.953125 C 130.078125 148.789062 129.222656 149.683594 128.429688 150.636719 C 127.636719 151.589844 126.914062 152.59375 126.257812 153.648438 C 125.605469 154.703125 125.03125 155.800781 124.53125 156.933594 C 124.027344 158.070312 123.609375 159.234375 123.273438 160.425781 C 122.933594 161.621094 122.679688 162.832031 122.511719 164.058594 C 122.339844 165.289062 122.257812 166.523438 122.261719 167.765625 L 122.261719 194.84375 C 122.261719 195.351562 122.164062 195.839844 121.96875 196.3125 C 121.773438 196.78125 121.496094 197.195312 121.136719 197.554688 C 120.777344 197.914062 120.359375 198.191406 119.890625 198.386719 C 119.421875 198.582031 118.929688 198.679688 118.421875 198.679688 C 117.914062 198.679688 117.425781 198.582031 116.953125 198.386719 C 116.484375 198.191406 116.070312 197.914062 115.707031 197.554688 C 115.347656 197.195312 115.070312 196.78125 114.875 196.3125 C 114.683594 195.839844 114.585938 195.351562 114.585938 194.84375 L 114.585938 167.765625 C 114.578125 166.167969 114.683594 164.578125 114.902344 162.996094 C 115.117188 161.414062 115.441406 159.855469 115.875 158.316406 C 116.308594 156.78125 116.847656 155.28125 117.492188 153.820312 C 118.132812 152.359375 118.875 150.949219 119.714844 149.589844 C 120.554688 148.230469 121.484375 146.9375 122.503906 145.710938 C 123.523438 144.480469 124.621094 143.328125 125.804688 142.253906 C 126.984375 141.175781 128.230469 140.1875 129.550781 139.289062 C 130.867188 138.386719 132.242188 137.582031 133.671875 136.871094 L 143.160156 132.128906 L 125.398438 109.9375 C 124.71875 109.09375 124.171875 108.167969 123.753906 107.164062 C 123.339844 106.164062 123.066406 105.125 122.945312 104.046875 C 122.820312 102.96875 122.851562 101.894531 123.03125 100.824219 C 123.210938 99.753906 123.535156 98.730469 124.007812 97.75 C 124.476562 96.773438 125.074219 95.878906 125.796875 95.070312 C 126.519531 94.261719 127.339844 93.566406 128.257812 92.992188 C 129.179688 92.414062 130.160156 91.972656 131.203125 91.675781 C 132.246094 91.375 133.308594 91.226562 134.394531 91.226562 L 141.449219 91.226562 L 141.449219 95.0625 C 141.449219 96.359375 141.539062 97.636719 141.640625 98.902344 L 134.394531 98.902344 C 133.65625 98.902344 132.976562 99.097656 132.351562 99.488281 C 131.726562 99.882812 131.253906 100.410156 130.933594 101.074219 C 130.613281 101.738281 130.496094 102.4375 130.578125 103.171875 C 130.660156 103.902344 130.933594 104.558594 131.394531 105.132812 L 152.117188 131.046875 C 152.292969 131.269531 152.445312 131.507812 152.570312 131.765625 C 152.695312 132.023438 152.789062 132.292969 152.855469 132.570312 C 152.917969 132.847656 152.953125 133.128906 152.953125 133.417969 C 152.957031 133.703125 152.925781 133.984375 152.863281 134.265625 C 152.804688 134.542969 152.710938 134.8125 152.589844 135.070312 C 152.46875 135.328125 152.320312 135.570312 152.144531 135.796875 C 151.96875 136.023438 151.769531 136.226562 151.550781 136.40625 C 151.328125 136.589844 151.089844 136.742188 150.835938 136.871094 Z M 150.84375 136.871094 " fill-opacity="1" fill-rule="nonzero"/></g></svg>