<svg xmlns="http://www.w3.org/2000/svg" xmlns:xlink="http://www.w3.org/1999/xlink" zoomAndPan="magnify" preserveAspectRatio="xMidYMid meet" version="1.0" viewBox="-102.45 -57.6 1229.4 691.2"><defs><filter x="0%" y="0%" width="100%" height="100%" id="c75b768605"><feColorMatrix values="0 0 0 0 1 0 0 0 0 1 0 0 0 0 1 0 0 0 1 0" color-interpolation-filters="sRGB"/></filter><g/><mask id="cfb009e2b2"><g filter="url(#c75b768605)"><rect x="-102.45" width="1229.4" fill="#000000" y="-57.6" height="691.2" fill-opacity="0.63"/></g></mask><clipPath id="09ed031389"><path d="M 8 17 L 162 17 L 162 171 L 8 171 Z M 8 17 " clip-rule="nonzero"/></clipPath><clipPath id="7b71fbac10"><path d="M 0.945312 25.625 L 229.035156 1.277344 L 253.226562 227.878906 L 25.136719 252.226562 Z M 0.945312 25.625 " clip-rule="nonzero"/></clipPath><clipPath id="872d5929ff"><path d="M 0.945312 25.625 L 229.035156 1.277344 L 253.226562 227.878906 L 25.136719 252.226562 Z M 0.945312 25.625 " clip-rule="nonzero"/></clipPath><clipPath id="43f61a166f"><path d="M 141 136 L 174 136 L 174 173 L 141 173 Z M 141 136 " clip-rule="nonzero"/></clipPath><clipPath id="f14c7501c7"><path d="M 0.945312 25.625 L 229.035156 1.277344 L 253.226562 227.878906 L 25.136719 252.226562 Z M 0.945312 25.625 " clip-rule="nonzero"/></clipPath><clipPath id="9488b1fd0d"><path d="M 0.945312 25.625 L 229.035156 1.277344 L 253.226562 227.878906 L 25.136719 252.226562 Z M 0.945312 25.625 " clip-rule="nonzero"/></clipPath><clipPath id="ea1907c100"><path d="M 169 157 L 252 157 L 252 230 L 169 230 Z M 169 157 " clip-rule="nonzero"/></clipPath><clipPath id="33485f2251"><path d="M 0.945312 25.625 L 229.035156 1.277344 L 253.226562 227.878906 L 25.136719 252.226562 Z M 0.945312 25.625 " clip-rule="nonzero"/></clipPath><clipPath id="72a2634d99"><path d="M 0.945312 25.625 L 229.035156 1.277344 L 253.226562 227.878906 L 25.136719 252.226562 Z M 0.945312 25.625 " clip-rule="nonzero"/></clipPath><clipPath id="343a2cc886"><path d="M 32 70 L 111 70 L 111 148 L 32 148 Z M 32 70 " clip-rule="nonzero"/></clipPath><clipPath id="799dbbbd90"><path d="M 0.945312 25.625 L 229.035156 1.277344 L 253.226562 227.878906 L 25.136719 252.226562 Z M 0.945312 25.625 " clip-rule="nonzero"/></clipPath><clipPath id="00a23f3126"><path d="M 0.945312 25.625 L 229.035156 1.277344 L 253.226562 227.878906 L 25.136719 252.226562 Z M 0.945312 25.625 " clip-rule="nonzero"/></clipPath><clipPath id="37e4cf2812"><rect x="0" width="254" y="0" height="253"/></clipPath><clipPath id="7382242164"><path d="M 11.925781 10.59375 L 227.070312 10.59375 L 227.070312 248.976562 L 11.925781 248.976562 Z M 11.925781 10.59375 " clip-rule="nonzero"/></clipPath></defs><g fill="#023047" fill-opacity="1"><g transform="translate(274.707411, 218.590989)"><g><path d="M 2.46875 -24.625 C 3.9375 -24.46875 5.492188 -24.390625 7.140625 -24.390625 C 8.785156 -24.390625 10.347656 -24.390625 11.828125 -24.390625 C 16.085938 -24.390625 19.738281 -25.453125 22.78125 -27.578125 C 25.820312 -29.710938 27.34375 -34.148438 27.34375 -40.890625 L 27.34375 -172.40625 L 54.4375 -172.40625 L 54.4375 -42.859375 C 54.4375 -34.148438 53.367188 -27.003906 51.234375 -21.421875 C 49.097656 -15.835938 46.222656 -11.445312 42.609375 -8.25 C 38.992188 -5.050781 34.847656 -2.789062 30.171875 -1.46875 C 25.492188 -0.15625 20.609375 0.5 15.515625 0.5 C 13.054688 0.5 10.835938 0.5 8.859375 0.5 C 6.890625 0.5 4.757812 0.332031 2.46875 0 Z M 2.46875 -24.625 "/></g></g></g><g fill="#023047" fill-opacity="1"><g transform="translate(337.763828, 218.590989)"><g/></g></g><g fill="#023047" fill-opacity="1"><g transform="translate(375.939636, 218.590989)"><g/></g></g><g fill="#023047" fill-opacity="1"><g transform="translate(414.115443, 218.590989)"><g/></g></g><g fill="#023047" fill-opacity="1"><g transform="translate(452.291251, 218.590989)"><g/></g></g><g fill="#023047" fill-opacity="1"><g transform="translate(490.468823, 218.590989)"><g><path d="M 50.734375 -172.40625 C 64.859375 -172.40625 75.082031 -169.117188 81.40625 -162.546875 C 87.726562 -155.984375 90.890625 -146.050781 90.890625 -132.75 L 90.890625 -126.59375 C 90.890625 -117.726562 89.492188 -110.421875 86.703125 -104.671875 C 83.910156 -98.929688 79.472656 -94.664062 73.390625 -91.875 C 80.785156 -89.082031 86 -84.523438 89.03125 -78.203125 C 92.070312 -71.878906 93.59375 -64.117188 93.59375 -54.921875 L 93.59375 -40.890625 C 93.59375 -27.585938 90.144531 -17.445312 83.25 -10.46875 C 76.351562 -3.488281 66.09375 0 52.46875 0 L 9.859375 0 L 9.859375 -172.40625 Z M 36.9375 -77.578125 L 36.9375 -24.625 L 52.46875 -24.625 C 57.0625 -24.625 60.546875 -25.851562 62.921875 -28.3125 C 65.304688 -30.78125 66.5 -35.21875 66.5 -41.625 L 66.5 -56.640625 C 66.5 -64.691406 65.144531 -70.191406 62.4375 -73.140625 C 59.726562 -76.097656 55.253906 -77.578125 49.015625 -77.578125 Z M 36.9375 -147.78125 L 36.9375 -102.21875 L 47.53125 -102.21875 C 52.625 -102.21875 56.609375 -103.53125 59.484375 -106.15625 C 62.359375 -108.78125 63.796875 -113.539062 63.796875 -120.4375 L 63.796875 -130.046875 C 63.796875 -136.285156 62.6875 -140.800781 60.46875 -143.59375 C 58.25 -146.382812 54.757812 -147.78125 50 -147.78125 Z M 36.9375 -147.78125 "/></g></g></g><g fill="#023047" fill-opacity="1"><g transform="translate(590.464862, 218.590989)"><g><path d="M 36.9375 0 L 9.859375 0 L 9.859375 -172.40625 L 36.9375 -172.40625 L 36.9375 -98.515625 L 67.734375 -98.515625 L 67.734375 -172.40625 L 95.3125 -172.40625 L 95.3125 0 L 67.734375 0 L 67.734375 -73.890625 L 36.9375 -73.890625 Z M 36.9375 0 "/></g></g></g><g fill="#023047" fill-opacity="1"><g transform="translate(695.633087, 218.590989)"><g><path d="M 35.71875 -172.40625 L 35.71875 -39.40625 C 35.71875 -33.164062 36.988281 -28.8125 39.53125 -26.34375 C 42.070312 -23.882812 45.476562 -22.65625 49.75 -22.65625 C 54.019531 -22.65625 57.425781 -23.882812 59.96875 -26.34375 C 62.519531 -28.8125 63.796875 -33.164062 63.796875 -39.40625 L 63.796875 -172.40625 L 89.40625 -172.40625 L 89.40625 -41.125 C 89.40625 -27.175781 86 -16.460938 79.1875 -8.984375 C 72.375 -1.515625 62.316406 2.21875 49.015625 2.21875 C 35.710938 2.21875 25.65625 -1.515625 18.84375 -8.984375 C 12.03125 -16.460938 8.625 -27.175781 8.625 -41.125 L 8.625 -172.40625 Z M 35.71875 -172.40625 "/></g></g></g><g fill="#023047" fill-opacity="1"><g transform="translate(793.658741, 218.590989)"><g><path d="M 33.984375 -124.875 L 33.984375 0 L 9.609375 0 L 9.609375 -172.40625 L 43.59375 -172.40625 L 71.421875 -69.203125 L 71.421875 -172.40625 L 95.5625 -172.40625 L 95.5625 0 L 67.734375 0 Z M 33.984375 -124.875 "/></g></g></g><g fill="#023047" fill-opacity="1"><g transform="translate(898.826979, 218.590989)"><g><path d="M 1.96875 -172.40625 L 85.71875 -172.40625 L 85.71875 -147.78125 L 57.390625 -147.78125 L 57.390625 0 L 30.296875 0 L 30.296875 -147.78125 L 1.96875 -147.78125 Z M 1.96875 -172.40625 "/></g></g></g><g mask="url(#cfb009e2b2)"><g transform="matrix(1, 0, 0, 1, 327, 36)"><g clip-path="url(#37e4cf2812)"><g clip-path="url(#09ed031389)"><g clip-path="url(#7b71fbac10)"><g clip-path="url(#872d5929ff)"><path fill="#03694c" d="M 93.449219 169.824219 C 51.449219 174.308594 13.628906 143.789062 9.144531 101.78125 C 4.660156 59.777344 35.179688 21.960938 77.1875 17.476562 C 119.195312 12.992188 157.007812 43.511719 161.492188 85.519531 C 165.976562 127.527344 135.453125 165.34375 93.449219 169.824219 Z M 78.523438 30.003906 C 77.484375 30.117188 76.445312 30.253906 75.410156 30.414062 C 74.375 30.578125 73.34375 30.765625 72.320312 30.976562 C 71.292969 31.191406 70.273438 31.429688 69.261719 31.691406 C 68.246094 31.953125 67.238281 32.242188 66.238281 32.554688 C 65.238281 32.867188 64.246094 33.203125 63.265625 33.5625 C 62.28125 33.925781 61.308594 34.308594 60.34375 34.71875 C 59.378906 35.128906 58.425781 35.558594 57.480469 36.015625 C 56.539062 36.46875 55.605469 36.949219 54.6875 37.449219 C 53.765625 37.953125 52.859375 38.476562 51.964844 39.019531 C 51.070312 39.566406 50.191406 40.132812 49.324219 40.722656 C 48.457031 41.3125 47.609375 41.921875 46.769531 42.554688 C 45.933594 43.183594 45.113281 43.835938 44.308594 44.507812 C 43.507812 45.175781 42.71875 45.867188 41.949219 46.578125 C 41.179688 47.289062 40.425781 48.015625 39.691406 48.761719 C 38.957031 49.507812 38.242188 50.273438 37.542969 51.054688 C 36.847656 51.835938 36.167969 52.636719 35.511719 53.449219 C 34.851562 54.265625 34.214844 55.097656 33.597656 55.945312 C 32.980469 56.789062 32.386719 57.652344 31.808594 58.527344 C 31.234375 59.402344 30.683594 60.292969 30.152344 61.195312 C 29.621094 62.097656 29.113281 63.011719 28.625 63.941406 C 28.140625 64.867188 27.675781 65.808594 27.234375 66.757812 C 26.796875 67.707031 26.378906 68.667969 25.984375 69.640625 C 25.59375 70.613281 25.222656 71.59375 24.878906 72.582031 C 24.535156 73.570312 24.214844 74.566406 23.917969 75.570312 C 23.621094 76.578125 23.351562 77.589844 23.105469 78.605469 C 22.859375 79.625 22.636719 80.648438 22.441406 81.675781 C 22.246094 82.707031 22.074219 83.738281 21.929688 84.777344 C 21.785156 85.816406 21.664062 86.855469 21.570312 87.898438 C 21.476562 88.941406 21.410156 89.988281 21.367188 91.03125 C 21.324219 92.078125 21.304688 93.125 21.3125 94.175781 C 21.324219 95.222656 21.355469 96.269531 21.417969 97.3125 C 21.476562 98.359375 21.5625 99.402344 21.671875 100.445312 C 21.785156 101.488281 21.921875 102.523438 22.082031 103.558594 C 22.246094 104.59375 22.433594 105.625 22.644531 106.652344 C 22.859375 107.675781 23.097656 108.695312 23.359375 109.710938 C 23.621094 110.722656 23.910156 111.730469 24.222656 112.730469 C 24.535156 113.730469 24.871094 114.722656 25.230469 115.707031 C 25.59375 116.691406 25.976562 117.664062 26.386719 118.628906 C 26.796875 119.59375 27.226562 120.546875 27.683594 121.488281 C 28.136719 122.433594 28.617188 123.363281 29.117188 124.285156 C 29.621094 125.203125 30.144531 126.109375 30.6875 127.003906 C 31.234375 127.898438 31.800781 128.777344 32.390625 129.644531 C 32.980469 130.511719 33.589844 131.363281 34.222656 132.199219 C 34.851562 133.035156 35.503906 133.855469 36.175781 134.660156 C 36.847656 135.464844 37.535156 136.25 38.246094 137.023438 C 38.957031 137.792969 39.683594 138.542969 40.429688 139.28125 C 41.175781 140.015625 41.941406 140.730469 42.722656 141.425781 C 43.503906 142.125 44.304688 142.800781 45.121094 143.460938 C 45.933594 144.117188 46.765625 144.753906 47.613281 145.371094 C 48.457031 145.988281 49.320312 146.585938 50.195312 147.160156 C 51.070312 147.734375 51.960938 148.289062 52.863281 148.820312 C 53.765625 149.351562 54.679688 149.859375 55.609375 150.34375 C 56.535156 150.832031 57.476562 151.292969 58.425781 151.734375 C 59.378906 152.175781 60.339844 152.589844 61.308594 152.984375 C 62.28125 153.378906 63.261719 153.746094 64.25 154.089844 C 65.238281 154.4375 66.234375 154.757812 67.242188 155.050781 C 68.246094 155.347656 69.257812 155.617188 70.273438 155.867188 C 71.292969 156.113281 72.316406 156.332031 73.34375 156.527344 C 74.375 156.722656 75.40625 156.894531 76.445312 157.039062 C 77.484375 157.1875 78.523438 157.304688 79.566406 157.398438 C 80.609375 157.492188 81.65625 157.5625 82.703125 157.605469 C 83.746094 157.648438 84.796875 157.664062 85.84375 157.65625 C 86.890625 157.648438 87.9375 157.613281 88.984375 157.554688 C 90.027344 157.492188 91.070312 157.40625 92.113281 157.296875 C 93.15625 157.1875 94.195312 157.050781 95.226562 156.886719 C 96.261719 156.722656 97.292969 156.539062 98.320312 156.324219 C 99.34375 156.113281 100.363281 155.875 101.378906 155.609375 C 102.394531 155.347656 103.398438 155.0625 104.398438 154.75 C 105.398438 154.4375 106.390625 154.097656 107.375 153.738281 C 108.359375 153.378906 109.332031 152.992188 110.296875 152.585938 C 111.261719 152.175781 112.214844 151.742188 113.15625 151.289062 C 114.101562 150.832031 115.03125 150.351562 115.953125 149.851562 C 116.871094 149.351562 117.777344 148.828125 118.671875 148.28125 C 119.566406 147.734375 120.449219 147.167969 121.3125 146.578125 C 122.179688 145.988281 123.03125 145.378906 123.867188 144.75 C 124.703125 144.117188 125.523438 143.46875 126.328125 142.796875 C 127.132812 142.125 127.917969 141.433594 128.691406 140.722656 C 129.460938 140.015625 130.214844 139.285156 130.949219 138.539062 C 131.683594 137.792969 132.398438 137.027344 133.09375 136.246094 C 133.792969 135.464844 134.46875 134.667969 135.128906 133.851562 C 135.785156 133.035156 136.421875 132.207031 137.039062 131.359375 C 137.65625 130.511719 138.253906 129.652344 138.828125 128.777344 C 139.402344 127.898438 139.957031 127.011719 140.488281 126.109375 C 141.019531 125.203125 141.527344 124.289062 142.011719 123.363281 C 142.5 122.433594 142.964844 121.496094 143.402344 120.542969 C 143.84375 119.59375 144.257812 118.632812 144.652344 117.660156 C 145.046875 116.691406 145.414062 115.710938 145.757812 114.722656 C 146.105469 113.730469 146.425781 112.734375 146.71875 111.730469 C 147.015625 110.726562 147.289062 109.714844 147.535156 108.695312 C 147.78125 107.675781 148 106.652344 148.195312 105.625 C 148.394531 104.597656 148.5625 103.5625 148.707031 102.523438 C 148.855469 101.488281 148.972656 100.449219 149.066406 99.402344 C 149.160156 98.359375 149.230469 97.316406 149.273438 96.269531 C 149.316406 95.222656 149.332031 94.175781 149.324219 93.128906 C 149.316406 92.082031 149.28125 91.035156 149.222656 89.988281 C 149.160156 88.941406 149.078125 87.898438 148.964844 86.855469 C 148.851562 85.816406 148.714844 84.777344 148.550781 83.742188 C 148.386719 82.710938 148.199219 81.679688 147.984375 80.65625 C 147.773438 79.628906 147.53125 78.609375 147.269531 77.597656 C 147.003906 76.582031 146.71875 75.578125 146.402344 74.578125 C 146.089844 73.578125 145.753906 72.589844 145.390625 71.605469 C 145.03125 70.621094 144.644531 69.648438 144.234375 68.6875 C 143.824219 67.722656 143.394531 66.769531 142.9375 65.828125 C 142.480469 64.882812 142.003906 63.953125 141.5 63.035156 C 141 62.113281 140.472656 61.207031 139.929688 60.316406 C 139.382812 59.421875 138.8125 58.542969 138.226562 57.675781 C 137.636719 56.8125 137.027344 55.960938 136.394531 55.125 C 135.765625 54.289062 135.113281 53.46875 134.441406 52.667969 C 133.769531 51.863281 133.078125 51.074219 132.371094 50.304688 C 131.660156 49.535156 130.933594 48.785156 130.1875 48.050781 C 129.4375 47.316406 128.675781 46.601562 127.894531 45.902344 C 127.113281 45.207031 126.3125 44.53125 125.5 43.871094 C 124.683594 43.214844 123.851562 42.578125 123.007812 41.960938 C 122.160156 41.34375 121.300781 40.746094 120.425781 40.171875 C 119.550781 39.597656 118.660156 39.046875 117.757812 38.515625 C 116.855469 37.984375 115.941406 37.476562 115.011719 36.988281 C 114.085938 36.503906 113.148438 36.039062 112.195312 35.597656 C 111.246094 35.160156 110.285156 34.742188 109.316406 34.347656 C 108.347656 33.957031 107.367188 33.585938 106.378906 33.242188 C 105.390625 32.894531 104.394531 32.574219 103.386719 32.277344 C 102.382812 31.984375 101.371094 31.710938 100.355469 31.464844 C 99.335938 31.21875 98.316406 30.996094 97.285156 30.800781 C 96.257812 30.601562 95.226562 30.433594 94.1875 30.285156 C 93.152344 30.140625 92.113281 30.019531 91.070312 29.925781 C 90.027344 29.828125 88.980469 29.761719 87.933594 29.714844 C 86.890625 29.671875 85.84375 29.65625 84.796875 29.664062 C 83.75 29.671875 82.703125 29.703125 81.65625 29.761719 C 80.609375 29.820312 79.566406 29.90625 78.527344 30.015625 Z M 78.523438 30.003906 " fill-opacity="1" fill-rule="nonzero"/></g></g></g><g clip-path="url(#43f61a166f)"><g clip-path="url(#f14c7501c7)"><g clip-path="url(#9488b1fd0d)"><path fill="#03694c" d="M 149.335938 172.1875 C 148.644531 172.261719 147.953125 172.234375 147.269531 172.105469 C 146.585938 171.972656 145.933594 171.746094 145.316406 171.425781 C 144.699219 171.101562 144.144531 170.695312 143.644531 170.210938 C 143.148438 169.722656 142.734375 169.171875 142.398438 168.5625 C 142.0625 167.949219 141.824219 167.304688 141.679688 166.621094 C 141.539062 165.941406 141.496094 165.253906 141.558594 164.558594 C 141.617188 163.863281 141.777344 163.195312 142.035156 162.546875 C 142.296875 161.902344 142.644531 161.304688 143.078125 160.761719 L 160.390625 139.144531 C 160.667969 138.753906 160.984375 138.394531 161.332031 138.066406 C 161.683594 137.734375 162.066406 137.445312 162.476562 137.195312 C 162.886719 136.945312 163.316406 136.738281 163.769531 136.578125 C 164.222656 136.414062 164.683594 136.296875 165.160156 136.230469 C 165.636719 136.164062 166.113281 136.144531 166.59375 136.175781 C 167.074219 136.203125 167.546875 136.28125 168.007812 136.410156 C 168.472656 136.535156 168.917969 136.707031 169.347656 136.925781 C 169.777344 137.140625 170.179688 137.402344 170.554688 137.699219 C 170.929688 138 171.269531 138.335938 171.578125 138.703125 C 171.886719 139.074219 172.152344 139.46875 172.378906 139.894531 C 172.605469 140.316406 172.785156 140.761719 172.921875 141.222656 C 173.058594 141.683594 173.144531 142.152344 173.1875 142.632812 C 173.226562 143.109375 173.21875 143.589844 173.160156 144.066406 C 173.101562 144.542969 172.996094 145.007812 172.84375 145.464844 C 172.691406 145.921875 172.492188 146.355469 172.25 146.769531 C 172.007812 147.1875 171.726562 147.574219 171.40625 147.929688 L 154.09375 169.546875 C 153.507812 170.285156 152.804688 170.886719 151.980469 171.34375 C 151.15625 171.800781 150.273438 172.082031 149.335938 172.1875 Z M 149.335938 172.1875 " fill-opacity="1" fill-rule="nonzero"/></g></g></g><g clip-path="url(#ea1907c100)"><g clip-path="url(#33485f2251)"><g clip-path="url(#72a2634d99)"><path fill="#03694c" d="M 240.542969 228.992188 C 238.921875 229.167969 237.332031 229.019531 235.773438 228.550781 C 234.214844 228.085938 232.804688 227.332031 231.550781 226.292969 L 174.289062 178.941406 C 173.675781 178.433594 173.121094 177.875 172.617188 177.257812 C 172.117188 176.640625 171.679688 175.984375 171.308594 175.28125 C 170.9375 174.578125 170.636719 173.847656 170.40625 173.085938 C 170.179688 172.328125 170.027344 171.550781 169.953125 170.761719 C 169.878906 169.96875 169.882812 169.179688 169.960938 168.386719 C 170.042969 167.597656 170.199219 166.824219 170.433594 166.0625 C 170.664062 165.304688 170.96875 164.574219 171.347656 163.875 C 171.722656 163.175781 172.164062 162.519531 172.671875 161.910156 C 173.179688 161.296875 173.738281 160.738281 174.355469 160.238281 C 174.96875 159.734375 175.628906 159.296875 176.332031 158.925781 C 177.03125 158.554688 177.765625 158.253906 178.523438 158.027344 C 179.285156 157.796875 180.0625 157.648438 180.851562 157.570312 C 181.644531 157.496094 182.433594 157.5 183.226562 157.578125 C 184.015625 157.660156 184.789062 157.816406 185.550781 158.050781 C 186.308594 158.285156 187.039062 158.589844 187.738281 158.964844 C 188.4375 159.34375 189.09375 159.785156 189.703125 160.289062 L 246.964844 207.640625 C 247.882812 208.398438 248.671875 209.273438 249.332031 210.265625 C 249.988281 211.257812 250.492188 212.320312 250.835938 213.460938 C 251.179688 214.597656 251.355469 215.765625 251.355469 216.953125 C 251.355469 218.144531 251.183594 219.308594 250.839844 220.449219 C 250.5 221.589844 250 222.65625 249.339844 223.644531 C 248.683594 224.636719 247.898438 225.515625 246.980469 226.273438 C 246.066406 227.035156 245.058594 227.644531 243.960938 228.109375 C 242.867188 228.570312 241.726562 228.863281 240.542969 228.992188 Z M 240.542969 228.992188 " fill-opacity="1" fill-rule="nonzero"/></g></g></g><g clip-path="url(#343a2cc886)"><g clip-path="url(#799dbbbd90)"><g clip-path="url(#00a23f3126)"><path fill="#03694c" d="M 90.921875 147.316406 C 81.109375 148.363281 67.839844 146.9375 52.816406 137.742188 C 39.628906 129.671875 32.472656 115.851562 32.117188 97.789062 C 31.980469 89.433594 33.101562 81.25 35.46875 73.234375 C 35.628906 72.761719 35.867188 72.335938 36.195312 71.957031 C 36.519531 71.578125 36.90625 71.277344 37.351562 71.050781 C 37.796875 70.824219 38.269531 70.695312 38.769531 70.65625 C 39.265625 70.617188 39.753906 70.675781 40.226562 70.828125 C 40.703125 70.984375 41.128906 71.222656 41.511719 71.546875 C 41.890625 71.871094 42.195312 72.257812 42.421875 72.699219 C 42.648438 73.144531 42.785156 73.617188 42.824219 74.113281 C 42.867188 74.613281 42.808594 75.097656 42.660156 75.574219 C 40.550781 82.839844 39.558594 90.257812 39.675781 97.824219 C 40.03125 113.296875 45.777344 124.542969 56.761719 131.277344 C 83.875 147.886719 104.238281 135.636719 104.441406 135.507812 C 104.652344 135.371094 104.875 135.257812 105.109375 135.164062 C 105.34375 135.070312 105.582031 135.003906 105.832031 134.957031 C 106.078125 134.914062 106.328125 134.894531 106.578125 134.898438 C 106.832031 134.902344 107.078125 134.933594 107.324219 134.988281 C 107.570312 135.042969 107.808594 135.121094 108.039062 135.222656 C 108.265625 135.328125 108.484375 135.449219 108.691406 135.597656 C 108.894531 135.742188 109.082031 135.90625 109.253906 136.089844 C 109.429688 136.273438 109.582031 136.472656 109.714844 136.683594 C 109.84375 136.898438 109.957031 137.125 110.042969 137.359375 C 110.132812 137.59375 110.195312 137.835938 110.234375 138.085938 C 110.273438 138.332031 110.289062 138.582031 110.277344 138.835938 C 110.265625 139.085938 110.230469 139.335938 110.171875 139.578125 C 110.113281 139.824219 110.027344 140.058594 109.921875 140.285156 C 109.816406 140.515625 109.6875 140.730469 109.535156 140.929688 C 109.386719 141.132812 109.21875 141.316406 109.03125 141.488281 C 108.84375 141.65625 108.644531 141.804688 108.425781 141.929688 C 107.917969 142.265625 101.390625 146.199219 90.921875 147.316406 Z M 90.921875 147.316406 " fill-opacity="1" fill-rule="nonzero"/></g></g></g></g></g></g><g clip-path="url(#7382242164)"><path fill="#6fa08e" d="M 170.65625 72.941406 C 170.65625 72.804688 170.589844 72.679688 170.578125 72.546875 C 177.074219 71.050781 183.449219 69.160156 189.714844 66.878906 C 190.066406 66.746094 190.402344 66.585938 190.722656 66.386719 C 191.046875 66.191406 191.34375 65.964844 191.617188 65.707031 C 191.894531 65.449219 192.140625 65.167969 192.363281 64.863281 C 192.582031 64.558594 192.769531 64.234375 192.921875 63.890625 C 193.078125 63.546875 193.199219 63.191406 193.28125 62.824219 C 193.367188 62.457031 193.414062 62.085938 193.421875 61.710938 C 193.433594 61.332031 193.40625 60.960938 193.34375 60.589844 C 193.277344 60.21875 193.175781 59.855469 193.039062 59.503906 C 192.90625 59.15625 192.734375 58.820312 192.53125 58.503906 C 192.328125 58.1875 192.097656 57.890625 191.835938 57.621094 C 191.574219 57.351562 191.289062 57.109375 190.980469 56.894531 C 190.667969 56.679688 190.339844 56.5 189.996094 56.351562 C 189.648438 56.203125 189.292969 56.089844 188.921875 56.011719 C 188.554688 55.933594 188.183594 55.894531 187.804688 55.890625 C 187.429688 55.886719 187.054688 55.921875 186.6875 55.992188 C 186.316406 56.0625 185.957031 56.167969 185.609375 56.3125 C 180.664062 58.105469 175.632812 59.613281 170.519531 60.847656 C 170.53125 60.632812 170.53125 60.417969 170.519531 60.199219 C 165.851562 41.6875 156.035156 10.59375 142.316406 10.59375 C 138.804688 10.765625 135.394531 11.453125 132.085938 12.660156 C 128.78125 13.863281 125.730469 15.535156 122.933594 17.667969 C 122.449219 18.003906 121.929688 18.257812 121.371094 18.433594 C 120.8125 18.609375 120.238281 18.695312 119.652344 18.695312 C 119.0625 18.695312 118.492188 18.609375 117.929688 18.433594 C 117.371094 18.257812 116.851562 18.003906 116.367188 17.667969 C 113.570312 15.535156 110.515625 13.867188 107.207031 12.660156 C 103.902344 11.453125 100.488281 10.765625 96.972656 10.59375 C 83.257812 10.59375 73.441406 41.6875 68.804688 60.234375 C 68.785156 60.445312 68.785156 60.65625 68.804688 60.871094 C 63.691406 59.625 58.65625 58.113281 53.703125 56.335938 C 53.359375 56.207031 53.003906 56.117188 52.640625 56.058594 C 52.277344 56 51.914062 55.976562 51.542969 55.992188 C 51.175781 56.003906 50.8125 56.050781 50.457031 56.136719 C 50.097656 56.21875 49.75 56.335938 49.417969 56.488281 C 49.082031 56.640625 48.761719 56.824219 48.464844 57.035156 C 48.164062 57.25 47.886719 57.488281 47.632812 57.757812 C 47.382812 58.023438 47.15625 58.3125 46.960938 58.621094 C 46.761719 58.933594 46.597656 59.261719 46.464844 59.601562 C 46.332031 59.945312 46.234375 60.296875 46.167969 60.660156 C 46.105469 61.023438 46.074219 61.386719 46.082031 61.753906 C 46.085938 62.121094 46.128906 62.488281 46.207031 62.847656 C 46.285156 63.207031 46.394531 63.554688 46.539062 63.890625 C 46.6875 64.230469 46.863281 64.550781 47.070312 64.855469 C 47.277344 65.160156 47.511719 65.4375 47.773438 65.695312 C 48.039062 65.953125 48.320312 66.183594 48.628906 66.386719 C 48.9375 66.589844 49.261719 66.761719 49.601562 66.898438 C 55.863281 69.183594 62.242188 71.070312 68.734375 72.566406 C 68.734375 72.703125 68.65625 72.828125 68.65625 72.964844 L 68.65625 95.613281 C 68.65625 97.285156 68.738281 98.949219 68.902344 100.613281 C 69.066406 102.277344 69.3125 103.925781 69.640625 105.5625 C 69.964844 107.203125 70.371094 108.820312 70.855469 110.417969 C 71.34375 112.015625 71.90625 113.585938 72.542969 115.128906 C 73.183594 116.671875 73.898438 118.179688 74.683594 119.652344 C 75.472656 121.128906 76.332031 122.558594 77.257812 123.945312 C 78.1875 125.335938 79.179688 126.675781 80.242188 127.964844 C 81.300781 129.257812 82.421875 130.492188 83.601562 131.671875 C 84.785156 132.855469 86.019531 133.976562 87.3125 135.035156 C 88.605469 136.09375 89.945312 137.085938 91.332031 138.015625 C 92.722656 138.941406 94.152344 139.800781 95.625 140.585938 C 97.097656 141.375 98.605469 142.089844 100.152344 142.726562 C 101.695312 143.367188 103.265625 143.929688 104.863281 144.414062 C 106.460938 144.898438 108.078125 145.304688 109.71875 145.628906 C 111.355469 145.953125 113.007812 146.199219 114.667969 146.363281 C 116.332031 146.527344 117.996094 146.609375 119.667969 146.609375 C 121.339844 146.609375 123.003906 146.527344 124.667969 146.363281 C 126.328125 146.199219 127.980469 145.953125 129.617188 145.628906 C 131.257812 145.304688 132.875 144.898438 134.472656 144.414062 C 136.070312 143.929688 137.640625 143.367188 139.183594 142.726562 C 140.726562 142.089844 142.238281 141.375 143.710938 140.585938 C 145.183594 139.800781 146.613281 138.941406 148.003906 138.015625 C 149.390625 137.085938 150.730469 136.09375 152.023438 135.035156 C 153.316406 133.976562 154.550781 132.855469 155.734375 131.671875 C 156.914062 130.492188 158.035156 129.257812 159.09375 127.964844 C 160.152344 126.675781 161.148438 125.335938 162.078125 123.945312 C 163.003906 122.558594 163.863281 121.128906 164.652344 119.652344 C 165.4375 118.179688 166.152344 116.671875 166.792969 115.128906 C 167.429688 113.585938 167.992188 112.015625 168.480469 110.417969 C 168.964844 108.820312 169.371094 107.203125 169.695312 105.5625 C 170.023438 103.925781 170.269531 102.277344 170.433594 100.613281 C 170.597656 98.949219 170.679688 97.285156 170.679688 95.613281 Z M 159.320312 95.613281 C 159.320312 96.914062 159.257812 98.210938 159.128906 99.503906 C 159.003906 100.796875 158.8125 102.082031 158.558594 103.355469 C 158.304688 104.628906 157.988281 105.886719 157.613281 107.132812 C 157.234375 108.375 156.796875 109.597656 156.300781 110.796875 C 155.804688 112 155.25 113.171875 154.636719 114.316406 C 154.023438 115.464844 153.355469 116.578125 152.632812 117.65625 C 151.914062 118.738281 151.140625 119.78125 150.316406 120.785156 C 149.492188 121.789062 148.621094 122.75 147.699219 123.667969 C 146.78125 124.589844 145.820312 125.460938 144.816406 126.285156 C 143.8125 127.109375 142.769531 127.882812 141.6875 128.605469 C 140.609375 129.324219 139.496094 129.992188 138.347656 130.605469 C 137.203125 131.21875 136.027344 131.773438 134.828125 132.269531 C 133.628906 132.765625 132.40625 133.203125 131.164062 133.582031 C 129.917969 133.960938 128.660156 134.273438 127.386719 134.527344 C 126.109375 134.78125 124.828125 134.972656 123.535156 135.097656 C 122.242188 135.226562 120.945312 135.289062 119.644531 135.289062 C 118.347656 135.289062 117.050781 135.226562 115.757812 135.097656 C 114.464844 134.972656 113.179688 134.78125 111.90625 134.527344 C 110.628906 134.273438 109.371094 133.960938 108.128906 133.582031 C 106.882812 133.203125 105.664062 132.765625 104.460938 132.269531 C 103.261719 131.773438 102.089844 131.21875 100.941406 130.605469 C 99.796875 129.992188 98.683594 129.324219 97.601562 128.605469 C 96.523438 127.882812 95.480469 127.109375 94.476562 126.285156 C 93.46875 125.460938 92.507812 124.589844 91.589844 123.667969 C 90.671875 122.75 89.800781 121.789062 88.976562 120.785156 C 88.152344 119.78125 87.378906 118.738281 86.65625 117.65625 C 85.933594 116.578125 85.265625 115.464844 84.652344 114.316406 C 84.042969 113.171875 83.488281 112 82.988281 110.796875 C 82.492188 109.597656 82.054688 108.375 81.675781 107.132812 C 81.300781 105.886719 80.984375 104.628906 80.730469 103.355469 C 80.476562 102.082031 80.289062 100.796875 80.160156 99.503906 C 80.03125 98.210938 79.96875 96.914062 79.96875 95.613281 L 79.96875 78.609375 L 159.320312 78.609375 Z M 119.644531 67.273438 C 106.183594 67.238281 92.855469 65.910156 79.652344 63.285156 C 79.652344 63.171875 79.765625 63.089844 79.800781 62.976562 C 84.796875 43.015625 93.128906 23.4375 96.972656 21.929688 C 99.332031 22.148438 101.613281 22.691406 103.820312 23.554688 C 106.027344 24.417969 108.070312 25.570312 109.953125 27.007812 C 110.660156 27.5 111.402344 27.933594 112.175781 28.3125 C 112.949219 28.691406 113.746094 29.011719 114.570312 29.269531 C 115.390625 29.527344 116.230469 29.71875 117.082031 29.851562 C 117.933594 29.980469 118.789062 30.046875 119.652344 30.046875 C 120.511719 30.046875 121.371094 29.980469 122.222656 29.851562 C 123.074219 29.71875 123.910156 29.527344 124.730469 29.269531 C 125.554688 29.011719 126.351562 28.691406 127.125 28.3125 C 127.898438 27.933594 128.640625 27.5 129.347656 27.007812 C 131.1875 25.605469 133.183594 24.472656 135.332031 23.613281 C 137.476562 22.75 139.699219 22.191406 142 21.929688 C 146.160156 23.484375 154.46875 43.0625 159.492188 63.023438 C 159.492188 63.148438 159.648438 63.203125 159.695312 63.328125 C 146.472656 65.941406 133.121094 67.257812 119.644531 67.273438 Z M 140.664062 170.953125 C 140.925781 171.214844 141.160156 171.503906 141.367188 171.8125 C 141.578125 172.121094 141.75 172.449219 141.894531 172.792969 C 142.039062 173.136719 142.144531 173.492188 142.21875 173.859375 C 142.289062 174.222656 142.328125 174.59375 142.328125 174.964844 C 142.328125 175.339844 142.289062 175.707031 142.21875 176.074219 C 142.144531 176.4375 142.039062 176.792969 141.894531 177.136719 C 141.75 177.484375 141.578125 177.808594 141.367188 178.121094 C 141.160156 178.429688 140.925781 178.714844 140.664062 178.980469 L 125.3125 194.316406 L 125.3125 242.980469 C 125.3125 243.355469 125.277344 243.722656 125.203125 244.085938 C 125.132812 244.453125 125.023438 244.808594 124.882812 245.152344 C 124.738281 245.496094 124.566406 245.820312 124.359375 246.132812 C 124.152344 246.441406 123.917969 246.726562 123.652344 246.988281 C 123.390625 247.253906 123.105469 247.488281 122.792969 247.695312 C 122.484375 247.902344 122.15625 248.074219 121.8125 248.21875 C 121.46875 248.359375 121.117188 248.46875 120.75 248.542969 C 120.386719 248.613281 120.015625 248.648438 119.644531 248.648438 C 119.273438 248.648438 118.90625 248.613281 118.539062 248.542969 C 118.175781 248.46875 117.820312 248.359375 117.476562 248.21875 C 117.132812 248.078125 116.804688 247.902344 116.496094 247.695312 C 116.1875 247.488281 115.902344 247.253906 115.636719 246.988281 C 115.375 246.726562 115.140625 246.441406 114.933594 246.132812 C 114.726562 245.820312 114.550781 245.496094 114.410156 245.152344 C 114.265625 244.808594 114.160156 244.453125 114.085938 244.085938 C 114.011719 243.722656 113.976562 243.355469 113.976562 242.980469 L 113.976562 194.316406 L 98.628906 178.980469 C 98.363281 178.714844 98.128906 178.429688 97.921875 178.117188 C 97.714844 177.808594 97.542969 177.480469 97.398438 177.136719 C 97.257812 176.792969 97.148438 176.4375 97.078125 176.074219 C 97.003906 175.707031 96.96875 175.339844 96.96875 174.96875 C 96.96875 174.59375 97.003906 174.226562 97.078125 173.859375 C 97.152344 173.496094 97.257812 173.140625 97.402344 172.796875 C 97.542969 172.453125 97.71875 172.125 97.925781 171.816406 C 98.132812 171.507812 98.367188 171.21875 98.632812 170.957031 C 98.894531 170.691406 99.179688 170.457031 99.492188 170.25 C 99.800781 170.042969 100.128906 169.867188 100.472656 169.726562 C 100.816406 169.582031 101.171875 169.476562 101.535156 169.402344 C 101.902344 169.332031 102.269531 169.292969 102.640625 169.292969 C 103.015625 169.292969 103.382812 169.332031 103.75 169.402344 C 104.113281 169.476562 104.46875 169.582031 104.8125 169.726562 C 105.15625 169.867188 105.484375 170.042969 105.792969 170.25 C 106.105469 170.457031 106.390625 170.691406 106.652344 170.953125 L 119.644531 183.957031 L 132.636719 170.953125 C 132.898438 170.6875 133.1875 170.453125 133.496094 170.246094 C 133.804688 170.039062 134.132812 169.863281 134.476562 169.722656 C 134.820312 169.578125 135.175781 169.46875 135.542969 169.398438 C 135.90625 169.324219 136.277344 169.289062 136.648438 169.289062 C 137.023438 169.289062 137.390625 169.324219 137.757812 169.398438 C 138.121094 169.46875 138.476562 169.578125 138.820312 169.722656 C 139.164062 169.863281 139.492188 170.039062 139.800781 170.246094 C 140.113281 170.453125 140.398438 170.6875 140.664062 170.953125 Z M 68.632812 197.636719 L 68.632812 242.980469 C 68.632812 243.355469 68.597656 243.722656 68.523438 244.085938 C 68.453125 244.453125 68.34375 244.808594 68.203125 245.152344 C 68.058594 245.496094 67.886719 245.820312 67.679688 246.132812 C 67.472656 246.441406 67.234375 246.726562 66.972656 246.988281 C 66.710938 247.253906 66.421875 247.488281 66.113281 247.695312 C 65.804688 247.902344 65.476562 248.074219 65.132812 248.21875 C 64.789062 248.359375 64.4375 248.46875 64.070312 248.542969 C 63.707031 248.613281 63.335938 248.648438 62.964844 248.648438 C 62.59375 248.648438 62.222656 248.613281 61.859375 248.542969 C 61.496094 248.46875 61.140625 248.359375 60.796875 248.21875 C 60.453125 248.078125 60.125 247.902344 59.816406 247.695312 C 59.507812 247.488281 59.21875 247.253906 58.957031 246.988281 C 58.695312 246.726562 58.460938 246.441406 58.253906 246.132812 C 58.046875 245.820312 57.871094 245.496094 57.730469 245.152344 C 57.585938 244.808594 57.480469 244.453125 57.40625 244.085938 C 57.332031 243.722656 57.296875 243.355469 57.296875 242.980469 L 57.296875 197.636719 C 57.296875 197.265625 57.332031 196.898438 57.40625 196.53125 C 57.480469 196.167969 57.585938 195.8125 57.730469 195.46875 C 57.871094 195.125 58.046875 194.796875 58.253906 194.488281 C 58.460938 194.179688 58.695312 193.894531 58.957031 193.628906 C 59.21875 193.367188 59.507812 193.132812 59.816406 192.925781 C 60.125 192.71875 60.453125 192.542969 60.796875 192.402344 C 61.140625 192.257812 61.496094 192.152344 61.859375 192.078125 C 62.222656 192.007812 62.59375 191.96875 62.964844 191.96875 C 63.335938 191.96875 63.707031 192.007812 64.070312 192.078125 C 64.4375 192.152344 64.789062 192.257812 65.132812 192.402344 C 65.476562 192.542969 65.804688 192.71875 66.113281 192.925781 C 66.421875 193.132812 66.710938 193.367188 66.972656 193.628906 C 67.234375 193.894531 67.472656 194.179688 67.679688 194.488281 C 67.886719 194.796875 68.058594 195.125 68.203125 195.46875 C 68.34375 195.8125 68.453125 196.167969 68.523438 196.53125 C 68.597656 196.898438 68.632812 197.265625 68.632812 197.636719 Z M 181.992188 197.636719 L 181.992188 242.980469 C 181.992188 243.355469 181.957031 243.722656 181.882812 244.085938 C 181.8125 244.453125 181.703125 244.808594 181.5625 245.152344 C 181.417969 245.496094 181.246094 245.820312 181.039062 246.132812 C 180.832031 246.441406 180.597656 246.726562 180.332031 246.988281 C 180.070312 247.253906 179.785156 247.488281 179.472656 247.695312 C 179.164062 247.902344 178.839844 248.074219 178.496094 248.21875 C 178.148438 248.359375 177.796875 248.46875 177.429688 248.542969 C 177.066406 248.613281 176.699219 248.648438 176.324219 248.648438 C 175.953125 248.648438 175.585938 248.613281 175.21875 248.542969 C 174.855469 248.46875 174.5 248.359375 174.15625 248.21875 C 173.8125 248.078125 173.484375 247.902344 173.175781 247.695312 C 172.867188 247.488281 172.582031 247.253906 172.316406 246.988281 C 172.054688 246.726562 171.820312 246.441406 171.613281 246.132812 C 171.40625 245.820312 171.230469 245.496094 171.089844 245.152344 C 170.945312 244.808594 170.839844 244.453125 170.765625 244.085938 C 170.695312 243.722656 170.65625 243.355469 170.65625 242.980469 L 170.65625 197.636719 C 170.65625 197.265625 170.695312 196.898438 170.765625 196.53125 C 170.839844 196.167969 170.945312 195.8125 171.089844 195.46875 C 171.230469 195.125 171.40625 194.796875 171.613281 194.488281 C 171.820312 194.179688 172.054688 193.894531 172.316406 193.628906 C 172.582031 193.367188 172.867188 193.132812 173.175781 192.925781 C 173.484375 192.71875 173.8125 192.542969 174.15625 192.402344 C 174.5 192.257812 174.855469 192.152344 175.21875 192.078125 C 175.585938 192.007812 175.953125 191.96875 176.324219 191.96875 C 176.699219 191.96875 177.066406 192.007812 177.429688 192.078125 C 177.796875 192.152344 178.148438 192.257812 178.496094 192.402344 C 178.839844 192.542969 179.164062 192.71875 179.472656 192.925781 C 179.785156 193.132812 180.070312 193.367188 180.332031 193.628906 C 180.597656 193.894531 180.832031 194.179688 181.039062 194.488281 C 181.246094 194.796875 181.417969 195.125 181.5625 195.46875 C 181.703125 195.8125 181.8125 196.167969 181.882812 196.53125 C 181.957031 196.898438 181.992188 197.265625 181.992188 197.636719 Z M 227.335938 202.988281 L 227.335938 242.980469 C 227.335938 243.355469 227.300781 243.722656 227.226562 244.085938 C 227.15625 244.453125 227.046875 244.808594 226.90625 245.152344 C 226.761719 245.496094 226.589844 245.820312 226.382812 246.132812 C 226.175781 246.441406 225.941406 246.726562 225.675781 246.988281 C 225.414062 247.253906 225.128906 247.488281 224.816406 247.695312 C 224.507812 247.902344 224.183594 248.074219 223.839844 248.21875 C 223.496094 248.359375 223.140625 248.46875 222.773438 248.542969 C 222.410156 248.613281 222.042969 248.648438 221.667969 248.648438 C 221.296875 248.648438 220.929688 248.613281 220.5625 248.542969 C 220.199219 248.46875 219.84375 248.359375 219.5 248.21875 C 219.15625 248.078125 218.828125 247.902344 218.519531 247.695312 C 218.210938 247.488281 217.925781 247.253906 217.660156 246.988281 C 217.398438 246.726562 217.164062 246.441406 216.957031 246.132812 C 216.75 245.820312 216.574219 245.496094 216.433594 245.152344 C 216.289062 244.808594 216.183594 244.453125 216.109375 244.085938 C 216.039062 243.722656 216 243.355469 216 242.980469 L 216 202.988281 C 216.007812 201.15625 215.886719 199.328125 215.636719 197.511719 C 215.390625 195.691406 215.015625 193.902344 214.519531 192.136719 C 214.019531 190.371094 213.402344 188.648438 212.664062 186.96875 C 211.925781 185.289062 211.074219 183.671875 210.109375 182.109375 C 209.144531 180.550781 208.074219 179.0625 206.902344 177.652344 C 205.730469 176.242188 204.46875 174.917969 203.109375 173.683594 C 201.753906 172.449219 200.320312 171.316406 198.804688 170.28125 C 197.289062 169.246094 195.710938 168.320312 194.066406 167.507812 L 173.785156 157.304688 C 173.410156 157.117188 173.054688 156.886719 172.730469 156.621094 C 172.402344 156.351562 172.109375 156.050781 171.851562 155.71875 C 171.589844 155.386719 171.371094 155.027344 171.191406 154.644531 C 171.011719 154.265625 170.878906 153.867188 170.789062 153.453125 C 170.695312 153.042969 170.652344 152.625 170.65625 152.203125 C 170.65625 151.78125 170.707031 151.363281 170.800781 150.953125 C 170.898438 150.542969 171.039062 150.144531 171.222656 149.765625 C 171.40625 149.386719 171.628906 149.03125 171.894531 148.699219 L 202.5 110.429688 C 202.832031 110.011719 203.101562 109.558594 203.304688 109.066406 C 203.511719 108.570312 203.644531 108.058594 203.703125 107.53125 C 203.761719 107 203.75 106.472656 203.660156 105.945312 C 203.570312 105.417969 203.410156 104.914062 203.175781 104.433594 C 202.945312 103.953125 202.652344 103.515625 202.296875 103.117188 C 201.941406 102.71875 201.539062 102.378906 201.085938 102.09375 C 200.632812 101.808594 200.152344 101.59375 199.636719 101.445312 C 199.125 101.300781 198.601562 101.226562 198.066406 101.226562 L 187.367188 101.226562 C 187.515625 99.355469 187.648438 97.472656 187.648438 95.558594 L 187.648438 89.945312 L 198.066406 89.945312 C 199.671875 89.945312 201.242188 90.164062 202.78125 90.609375 C 204.324219 91.050781 205.773438 91.699219 207.128906 92.550781 C 208.484375 93.402344 209.699219 94.429688 210.765625 95.625 C 211.832031 96.820312 212.714844 98.136719 213.410156 99.582031 C 214.105469 101.027344 214.585938 102.539062 214.851562 104.121094 C 215.117188 105.699219 215.160156 107.289062 214.976562 108.878906 C 214.796875 110.472656 214.398438 112.007812 213.78125 113.488281 C 213.164062 114.96875 212.355469 116.332031 211.351562 117.582031 L 185.121094 150.355469 L 199.132812 157.363281 C 201.246094 158.410156 203.277344 159.597656 205.222656 160.929688 C 207.171875 162.261719 209.015625 163.71875 210.761719 165.308594 C 212.503906 166.894531 214.128906 168.597656 215.636719 170.414062 C 217.140625 172.226562 218.515625 174.136719 219.753906 176.144531 C 220.996094 178.152344 222.089844 180.234375 223.039062 182.390625 C 223.992188 184.550781 224.785156 186.765625 225.425781 189.035156 C 226.066406 191.304688 226.546875 193.609375 226.867188 195.945312 C 227.1875 198.28125 227.34375 200.628906 227.335938 202.988281 Z M 65.503906 157.363281 L 45.222656 167.5625 C 43.582031 168.375 42.003906 169.300781 40.492188 170.332031 C 38.980469 171.367188 37.546875 172.5 36.191406 173.730469 C 34.835938 174.964844 33.570312 176.285156 32.398438 177.695312 C 31.230469 179.101562 30.160156 180.585938 29.195312 182.144531 C 28.230469 183.699219 27.378906 185.316406 26.640625 186.992188 C 25.902344 188.671875 25.28125 190.390625 24.785156 192.152344 C 24.285156 193.914062 23.910156 195.703125 23.660156 197.519531 C 23.410156 199.332031 23.285156 201.15625 23.289062 202.988281 L 23.289062 242.980469 C 23.289062 243.355469 23.253906 243.722656 23.179688 244.085938 C 23.109375 244.453125 23 244.808594 22.859375 245.152344 C 22.714844 245.496094 22.539062 245.820312 22.335938 246.132812 C 22.128906 246.441406 21.890625 246.726562 21.628906 246.988281 C 21.367188 247.253906 21.078125 247.488281 20.769531 247.695312 C 20.460938 247.902344 20.132812 248.074219 19.789062 248.21875 C 19.445312 248.359375 19.09375 248.46875 18.726562 248.542969 C 18.363281 248.613281 17.992188 248.648438 17.621094 248.648438 C 17.25 248.648438 16.878906 248.613281 16.515625 248.542969 C 16.152344 248.46875 15.796875 248.359375 15.453125 248.21875 C 15.109375 248.078125 14.78125 247.902344 14.472656 247.695312 C 14.164062 247.488281 13.875 247.253906 13.613281 246.988281 C 13.351562 246.726562 13.117188 246.441406 12.910156 246.132812 C 12.703125 245.820312 12.527344 245.496094 12.386719 245.152344 C 12.242188 244.808594 12.136719 244.453125 12.0625 244.085938 C 11.988281 243.722656 11.953125 243.355469 11.953125 242.980469 L 11.953125 202.988281 C 11.945312 200.628906 12.101562 198.28125 12.421875 195.945312 C 12.742188 193.609375 13.222656 191.304688 13.863281 189.035156 C 14.503906 186.765625 15.296875 184.554688 16.246094 182.394531 C 17.195312 180.234375 18.289062 178.152344 19.53125 176.148438 C 20.769531 174.140625 22.140625 172.230469 23.648438 170.414062 C 25.15625 168.601562 26.777344 166.898438 28.523438 165.308594 C 30.265625 163.722656 32.109375 162.261719 34.058594 160.929688 C 36.003906 159.597656 38.035156 158.410156 40.144531 157.363281 L 54.15625 150.355469 L 27.925781 117.582031 C 26.921875 116.332031 26.113281 114.96875 25.496094 113.488281 C 24.882812 112.007812 24.484375 110.472656 24.300781 108.878906 C 24.117188 107.289062 24.160156 105.699219 24.429688 104.121094 C 24.695312 102.539062 25.175781 101.027344 25.871094 99.582031 C 26.5625 98.136719 27.445312 96.820312 28.511719 95.625 C 29.582031 94.429688 30.792969 93.402344 32.148438 92.550781 C 33.507812 91.699219 34.957031 91.050781 36.496094 90.609375 C 38.039062 90.164062 39.609375 89.945312 41.210938 89.945312 L 51.628906 89.945312 L 51.628906 95.613281 C 51.628906 97.53125 51.765625 99.410156 51.914062 101.28125 L 41.210938 101.28125 C 40.679688 101.28125 40.15625 101.355469 39.640625 101.503906 C 39.128906 101.652344 38.644531 101.867188 38.195312 102.148438 C 37.742188 102.433594 37.339844 102.773438 36.980469 103.171875 C 36.625 103.570312 36.332031 104.011719 36.101562 104.492188 C 35.871094 104.972656 35.710938 105.476562 35.621094 106 C 35.53125 106.527344 35.515625 107.054688 35.574219 107.585938 C 35.636719 108.117188 35.769531 108.628906 35.972656 109.121094 C 36.175781 109.613281 36.445312 110.070312 36.777344 110.488281 L 67.386719 148.757812 C 67.648438 149.085938 67.875 149.441406 68.058594 149.824219 C 68.242188 150.203125 68.382812 150.597656 68.476562 151.007812 C 68.574219 151.421875 68.621094 151.835938 68.625 152.257812 C 68.625 152.679688 68.582031 153.097656 68.492188 153.511719 C 68.402344 153.921875 68.265625 154.320312 68.085938 154.703125 C 67.90625 155.085938 67.6875 155.441406 67.429688 155.773438 C 67.167969 156.109375 66.875 156.410156 66.550781 156.675781 C 66.222656 156.945312 65.871094 157.171875 65.492188 157.363281 Z M 65.503906 157.363281 " fill-opacity="1" fill-rule="nonzero"/></g></svg>